<svg width="130" height="102" viewBox="0 0 130 102" fill="none" xmlns="http://www.w3.org/2000/svg">
<path d="M129.984 62.1031C129.967 62.0208 129.943 61.9385 129.91 61.848L129.885 61.7657L123.129 49.9398C122.891 49.5201 122.449 49.265 121.974 49.2568L116.511 49.1909L120.344 1.79694C120.352 1.72288 120.344 1.64882 120.336 1.57475L120.328 1.47599C120.303 1.32786 120.254 1.17973 120.188 1.06452L120.123 0.949302C120.074 0.867006 120.008 0.79294 119.934 0.727104L119.713 0.537824L119.672 0.521365C119.582 0.463758 119.476 0.422612 119.369 0.397924L119.255 0.373233C119.14 0.348544 119.017 0.340316 118.903 0.348545L118.788 0.356773C118.657 0.381462 118.526 0.414383 118.411 0.47199L58.5831 29.2754C58.2719 29.4235 58.0262 29.6869 57.9034 30.0161L49.5332 52.063L5.85585 13.8368C5.37264 13.4171 4.60278 13.4006 4.11138 13.8121C3.59541 14.2318 3.46437 14.956 3.79197 15.5321L25.4136 53.7748L21.9574 53.3551C21.4414 53.2975 20.95 53.5279 20.6716 53.9558L0.212939 84.8825L0.163799 84.9648C0.106469 85.0635 0.0655185 85.1787 0.0409485 85.294L0.0163785 85.4092C-1.55903e-06 85.5408 -0.00819157 85.6643 0.00818845 85.7795L0.0245685 85.8865C0.0491385 86.0099 0.0900885 86.1251 0.139229 86.2239L0.245699 86.3967C0.303029 86.479 0.368549 86.5448 0.450449 86.6271L0.540539 86.7012C0.614249 86.7588 0.696149 86.8082 0.794429 86.8493L0.909089 86.8987C1.03194 86.9399 1.16298 86.9646 1.28583 86.9728L68.1572 89.8778L79.6724 101.597L79.8608 101.753C79.9509 101.811 80.0246 101.844 80.0328 101.844L80.1638 101.901C80.3194 101.959 80.475 101.992 80.6306 101.992H80.7699L80.8026 101.983C80.8436 101.975 80.8845 101.967 80.9173 101.959L81.163 101.876C81.2121 101.852 81.2694 101.827 81.3186 101.794C81.3595 101.77 81.4005 101.737 81.4414 101.712C81.4906 101.679 81.5397 101.638 81.597 101.572C81.6216 101.547 81.6462 101.523 81.6708 101.49L84.914 96.7166L87.412 99.0044C87.6986 99.2677 88.0999 99.3912 88.4848 99.35C88.878 99.3007 89.2301 99.0867 89.4513 98.7493L115.225 59.7741L128.305 63.6338L128.419 63.6585C128.501 63.6749 128.575 63.6832 128.657 63.6832L128.821 63.6667C128.919 63.6585 129.017 63.6338 129.132 63.5926C129.156 63.5844 129.181 63.5679 129.214 63.5597C129.255 63.5433 129.296 63.5268 129.345 63.4939L129.459 63.4198L129.5 63.3787C129.55 63.3375 129.615 63.2881 129.664 63.2223C129.705 63.1812 129.738 63.1318 129.771 63.0824L129.877 62.9178C129.91 62.852 129.926 62.7944 129.943 62.745C129.959 62.6874 129.975 62.6298 129.984 62.5804C130 62.4899 130.008 62.3911 130.008 62.2677C130 62.2265 129.992 62.1689 129.984 62.1031ZM114.201 51.1084C114.177 51.0919 114.152 51.0837 114.12 51.0673L121.63 51.1578L126.912 60.4078L114.201 51.1084ZM125.815 60.9345L115.152 57.7908L114.57 52.7132L125.815 60.9345ZM117.224 3.14659L75.7985 58.5726L65.0041 50.4994C64.9795 50.483 64.9549 50.4665 64.9222 50.4583C64.914 50.45 64.8976 50.4418 64.8894 50.4418C64.8403 50.4171 64.7912 50.4089 64.742 50.4007C64.7338 50.4007 64.7174 50.4007 64.7093 50.4007C64.6683 50.4007 64.6273 50.4007 64.5864 50.4089C64.5782 50.4089 64.57 50.4089 64.5618 50.4089L50.9746 53.602L59.5987 30.8966L117.224 3.14659ZM78.0999 73.8137L66.3964 52.8942L75.5774 59.7577L86.1834 67.691L78.2965 73.4928C78.1982 73.5833 78.1327 73.6903 78.0999 73.8137ZM82.0065 83.0144L64.7666 72.1514L61.2449 69.9376L64.914 52.4581L82.0065 83.0144ZM63.9803 51.6598L60.2785 69.3204L40.8681 57.0913L63.9803 51.6598ZM39.4431 56.3013L28.2473 54.9352L7.01065 17.3673L48.9517 54.071L39.4431 56.3013ZM39.2875 57.3793L63.0385 72.3489L2.53071 84.8166L22.0557 55.2808L39.2875 57.3793ZM64.3653 73.1801L82.326 84.4957L73.0057 88.1825L68.9844 88.0097L68.9599 87.985C68.7551 87.7711 68.4193 87.771 68.2064 87.9768L5.75757 85.261L64.3653 73.1801ZM73.0713 89.2771C73.0794 89.2771 73.0876 89.2771 73.0958 89.2771C73.1613 89.2771 73.235 89.2606 73.2924 89.2359L82.8174 85.4668L80.2866 99.4982L70.1065 89.1536L73.0713 89.2771ZM84.054 84.7097C84.054 84.7014 84.054 84.6932 84.054 84.6932C84.054 84.685 84.0622 84.6768 84.0622 84.6685C84.0622 84.6274 84.0622 84.5945 84.054 84.5533C84.054 84.5451 84.054 84.5368 84.054 84.5204C84.0459 84.4628 84.0213 84.4134 83.9967 84.364C83.9967 84.3558 83.9967 84.3558 83.9885 84.3476L78.4521 74.4474C78.6077 74.4968 78.7879 74.4886 78.9353 74.3816L110.59 51.0837L113.022 51.8491L81.6134 98.2143L84.054 84.7097ZM113.514 53.0588L114.087 58.0706L88.2228 97.1857L85.3808 94.5851L113.514 53.0588ZM110.5 49.9316C110.491 49.9316 110.483 49.9316 110.475 49.9316C110.426 49.9316 110.385 49.9398 110.344 49.9563C110.311 49.9645 110.287 49.9727 110.254 49.9892C110.229 50.0056 110.197 50.0139 110.172 50.0386L87.0925 67.0244L76.6585 59.2145L118.288 3.51692L114.529 49.981L110.5 49.9316Z" fill="#BDBDBD"/>
<path d="M118.296 3.52515L76.6667 59.2227L87.1007 67.0326L110.18 50.0468C110.205 50.0303 110.238 50.0139 110.262 49.9974C110.295 49.9809 110.319 49.9727 110.352 49.9645C110.393 49.948 110.442 49.948 110.483 49.9398C110.491 49.9398 110.5 49.9398 110.508 49.9398L114.545 49.9892L118.296 3.52515Z" fill="white"/>
<path d="M60.2703 69.3203L63.9804 51.6597L40.86 57.0912L60.2703 69.3203Z" fill="white"/>
<path d="M68.9599 87.9932L68.9844 88.0179L73.0057 88.1907L82.326 84.5038L64.3653 73.1882L5.75758 85.261L68.2064 87.9767C68.4193 87.7792 68.7551 87.7792 68.9599 87.9932Z" fill="white"/>
<path d="M61.2531 69.9376L64.7666 72.1513L82.0066 83.0143L64.914 52.458L61.2531 69.9376Z" fill="white"/>
<path d="M121.638 51.1579L114.128 51.0674C114.152 51.0838 114.185 51.0921 114.21 51.1085L126.929 60.3997L121.638 51.1579Z" fill="white"/>
<path d="M110.598 51.0837L78.9435 74.3816C78.7961 74.4886 78.6159 74.505 78.4603 74.4474L83.9967 84.3476C83.9967 84.3558 83.9967 84.3558 84.0049 84.364C84.0295 84.4134 84.0541 84.4628 84.0623 84.5204C84.0623 84.5286 84.0623 84.5369 84.0623 84.5533C84.0704 84.5945 84.0704 84.6274 84.0704 84.6685C84.0704 84.6768 84.0623 84.685 84.0623 84.6932C84.0623 84.7015 84.0623 84.7097 84.0623 84.7097L81.6298 98.2144L113.038 51.8491L110.598 51.0837Z" fill="white"/>
<path d="M75.5774 59.7658L66.3964 52.9023L78.0999 73.8219C78.1327 73.6984 78.19 73.5914 78.2965 73.5091L86.1835 67.7073L75.5774 59.7658Z" fill="white"/>
<path d="M82.8174 85.4751L73.2924 89.2442C73.2269 89.2689 73.1613 89.2854 73.0958 89.2854C73.0876 89.2854 73.0795 89.2854 73.0713 89.2854L70.1065 89.1537L80.2867 99.5147L82.8174 85.4751Z" fill="white"/>
<path d="M114.087 58.0789L113.514 53.0588L85.389 94.5934L88.2228 97.1857L114.087 58.0789Z" fill="white"/>
<path d="M125.815 60.9345L114.562 52.7131L115.143 57.7908L125.815 60.9345Z" fill="white"/>
<path d="M63.0385 72.3489L39.2875 57.3793L22.0557 55.2808L2.53071 84.8166L63.0385 72.3489Z" fill="white"/>
<path d="M28.2473 54.9433L39.4431 56.3012L48.9435 54.071L7.01064 17.3672L28.2473 54.9433Z" fill="white"/>
<path d="M64.5618 50.4007C64.57 50.4007 64.5782 50.4007 64.5864 50.4007C64.6274 50.3925 64.6683 50.3925 64.7093 50.3925C64.7175 50.3925 64.7338 50.3925 64.742 50.3925C64.7912 50.4007 64.8403 50.409 64.8894 50.4336C64.8976 50.4419 64.914 50.4501 64.9222 50.4501C64.9468 50.4666 64.9795 50.4748 65.0041 50.4913L75.7985 58.5644L117.232 3.13843L59.5905 30.8885L50.9664 53.5938L64.5618 50.4007Z" fill="white"/>
</svg>
