<svg width="172" height="415" viewBox="0 0 172 415" fill="none" xmlns="http://www.w3.org/2000/svg">
<path d="M171.165 2.8343L166.687 0.225456L166.462 0.096624L166.317 0.064416C166.253 0.048312 166.189 0.032208 166.109 0.016104L165.852 0C165.82 0 165.788 0 165.755 0H165.579L164.439 0.305976C108.751 15.5565 53.9305 23.6246 5.90011 23.6246C4.79245 23.6246 3.6848 23.6246 2.57715 23.6085H1.85477C1.35712 23.6085 0.891587 23.8339 0.570528 24.2204C0.249469 24.6069 0.121046 25.1222 0.217364 25.6215L2.80189 38.3114C2.81794 38.3919 2.85005 38.4886 2.88215 38.5691L2.93031 38.6496C2.99453 38.7784 3.07479 38.9073 3.15505 39.02L3.25137 39.181L7.37698 41.9992V45.4133C7.37698 45.6548 7.42514 45.8803 7.52146 46.1057C7.60172 46.2829 7.71409 46.4439 7.84252 46.5889L7.92278 46.7016L12.6905 49.4715C12.9474 49.6164 13.2363 49.6969 13.5253 49.6969L24.2486 48.3925L25.1315 51.2268L25.2439 51.5489L26.5603 53.0949V57.2658L8.86991 59.15C8.0191 59.2305 7.37698 59.9552 7.37698 60.8087V68.8607C7.37698 69.0861 7.42514 69.3116 7.52146 69.5532C7.60172 69.7303 7.71409 69.8913 7.84252 70.0202L7.92278 70.149L12.6905 72.9189C12.9474 73.0638 13.2363 73.1443 13.5253 73.1443L24.2005 72.1137L25.1315 75.1251L25.2279 75.4311L25.3402 75.5438C25.4366 75.6888 25.581 75.8337 25.7416 75.9625L25.9502 76.1075L26.5603 76.3651V395.772C26.5603 396.593 27.1703 397.318 27.989 397.431L31.039 397.865V398.381C31.039 399.202 31.649 399.927 32.4678 400.039L43.3998 401.618L43.6085 401.634C44.0098 401.634 44.3951 401.489 44.7001 401.231C45.0693 400.909 45.278 400.458 45.278 399.959V77.6535L45.6151 77.6213L45.7275 77.5568C45.7275 77.5568 45.7435 77.5568 45.7435 77.5407L45.9522 77.4602L46.2893 77.1865C46.498 76.9771 46.6586 76.7355 46.7388 76.4618L48.7294 69.7303L114.097 63.337L115.365 67.0731L115.478 67.363L115.606 67.4918C115.622 67.5079 115.638 67.5241 115.654 67.5402C115.67 67.5563 115.67 67.5724 115.686 67.5885L115.831 67.8139L117.051 68.5064V408.832C117.051 409.653 117.661 410.378 118.479 410.491L121.53 410.926V411.441C121.53 412.262 122.14 412.987 122.958 413.1L135.993 414.984L136.202 415C136.603 415 136.989 414.855 137.294 414.597C137.663 414.275 137.871 413.808 137.871 413.325V69.3116L138.53 69.2472L138.642 69.1828C138.786 69.1345 138.899 69.0539 138.979 69.0056L139.188 68.8446C139.396 68.6513 139.557 68.4098 139.637 68.136L142.077 60.6154L160.811 58.7796C160.907 58.7635 161.02 58.7474 161.116 58.7152C161.212 58.683 161.341 58.6347 161.485 58.5541L161.726 58.4092L161.839 58.2804C161.871 58.2481 161.887 58.232 161.903 58.1998C161.983 58.1193 162.047 58.0227 162.095 57.9261L162.208 57.7811L162.272 57.4913C162.272 57.4913 162.272 57.4752 162.272 57.4591L162.32 57.3463V47.8289C162.32 47.233 161.999 46.6694 161.485 46.3795L157.007 43.7707L156.766 43.6257L156.605 43.6096C156.525 43.5935 156.445 43.5774 156.364 43.5613L156.268 43.5452L137.904 45.4777V42.8366L138.578 42.7561L138.706 42.6756C138.851 42.6112 138.963 42.5468 139.027 42.4984L139.236 42.3374C139.445 42.1442 139.589 41.9026 139.669 41.6449L142.109 34.0277L160.859 31.741C160.956 31.7249 161.068 31.7088 161.164 31.6766C161.261 31.6444 161.373 31.6121 161.501 31.5316L161.742 31.3867L161.855 31.2579C161.887 31.2256 161.919 31.1934 161.935 31.1612C161.999 31.0807 162.063 30.9841 162.111 30.8875L162.24 30.7103L162.288 30.4366L162.32 30.3399V22.2718L166.975 21.6599L167.329 21.6116L167.698 21.4183L167.987 21.1607C168.212 20.9352 168.356 20.6614 168.42 20.3555L171.952 4.63795C172.112 3.92938 171.791 3.18859 171.165 2.8343ZM119.009 408.591V67.5563V67.5241C123.103 67.6046 127.244 67.1537 131.29 66.6544C131.354 66.6544 131.402 66.6544 131.466 66.6544V410.394L123.263 409.219L119.009 408.591ZM28.5027 395.562V76.0109C31.6009 76.2524 35.0041 75.7371 38.1023 75.1412C38.3592 75.1412 38.6 75.1573 38.8568 75.1573V397.044L32.7567 396.158L28.5027 395.562ZM2.56109 25.5731C3.66875 25.5893 4.7764 25.5893 5.90011 25.5893C54.1071 25.5893 109.105 17.505 164.953 2.20625L165.466 2.06131L162.079 17.1347L88.621 26.7165C86.0043 27.0547 83.4038 27.3768 80.7871 27.715C68.2658 29.3093 55.7285 30.9036 43.2072 32.4979C32.1146 33.915 20.8775 34.994 9.84914 36.9909L4.66403 37.6672L2.19188 25.5731H2.56109ZM136.956 40.727C135.961 40.3727 135.046 39.6802 134.243 39.0039C134.179 38.9556 134.26 38.875 134.324 38.9073C135.255 39.3582 136.282 39.8574 137.069 40.5499C137.133 40.6143 137.053 40.7592 136.956 40.727ZM135.415 41.3067C135.158 41.2262 135.014 41.0491 134.821 40.8558C134.789 40.8236 134.837 40.7592 134.87 40.7914C135.094 40.888 135.319 40.9686 135.48 41.1618C135.544 41.2262 135.512 41.339 135.415 41.3067ZM44.2185 41.9509C45.2459 42.2891 46.4178 42.7883 47.3007 43.4164C47.4291 43.513 47.3649 43.7385 47.1883 43.6901C46.6746 43.513 46.193 43.2392 45.7275 42.9655C45.4706 42.8205 45.1977 42.6756 44.9409 42.5145C44.7643 42.4018 44.4272 42.273 44.3148 42.0797C44.3309 42.0958 44.2988 42.1281 44.2827 42.1119C44.2506 42.0797 44.2185 42.0475 44.1864 42.0153C44.1543 41.9831 44.1864 41.9348 44.2185 41.9509ZM133.2 38.2792L117.131 40.1151L115.173 34.382C121.915 34.1566 128.769 33.142 135.367 31.9664L133.345 38.2631L133.2 38.2792ZM41.9069 49.6003C42.7898 50.0995 43.753 50.5988 44.5075 51.2751C44.6359 51.3879 44.4754 51.565 44.3309 51.5006C43.4319 51.0497 42.6132 50.325 41.8266 49.6969C41.7945 49.6486 41.8587 49.5681 41.9069 49.6003ZM45.2941 53.4492L45.6633 53.4009L45.7596 53.3364C45.7596 53.3364 45.7757 53.3364 45.7757 53.3203L46.0004 53.2237L46.2733 52.9982L46.3857 52.8694C46.5462 52.6762 46.6746 52.4668 46.7388 52.2253L48.7454 45.4133L114.145 37.4257L115.333 40.9041L115.397 41.1296L115.478 41.2584C115.574 41.4356 115.702 41.5805 115.847 41.6932L115.943 41.7738L117.051 42.4179V47.6839L45.278 55.3011V53.4492H45.2941ZM41.939 51.2912C41.9069 51.259 41.955 51.2107 41.9872 51.2268C42.2119 51.3395 42.4527 51.4201 42.6614 51.565C42.8059 51.6616 42.6774 51.8871 42.533 51.7905C42.3082 51.6455 42.1316 51.4523 41.939 51.2912ZM28.5027 52.499V51.7582C29.9314 51.9515 31.3922 51.7905 32.837 51.6616C34.8436 51.4684 36.8663 51.2912 38.8568 50.9853V57.4107L28.5027 58.5058V52.499ZM28.5027 50.8725V50.8403L28.6311 50.8242C28.5829 50.8403 28.5348 50.8564 28.5027 50.8725ZM119.009 41.5C122.701 41.661 126.731 40.9847 130.407 40.2278C130.76 40.2117 131.113 40.2117 131.466 40.1956V47.5712L131.322 47.5873L123.183 48.4569L120.149 48.779L118.993 48.9078V41.5H119.009ZM138.738 31.3384C138.658 31.2901 138.722 31.1612 138.819 31.2095C139.38 31.4672 140.023 31.6927 140.504 32.0953C140.6 32.1758 140.504 32.3368 140.392 32.3046C139.798 32.1114 139.252 31.6766 138.738 31.3384ZM158.162 28.7617C157.584 28.4236 156.862 28.1337 156.461 27.5861V27.57C157.135 27.6345 157.761 28.1015 158.355 28.4397C159.029 28.81 159.768 29.2127 160.362 29.7119C160.426 29.7602 160.362 29.8729 160.281 29.8407C159.559 29.583 158.837 29.1482 158.162 28.7617ZM9.30334 41.1296V38.2792C20.6367 37.4901 31.938 35.7026 43.1911 34.3015C56.0816 32.675 68.9882 31.0646 81.8787 29.4381C94.4 27.8599 106.937 26.2656 119.459 24.6874C131.579 23.1575 143.827 21.9981 155.883 19.9851V27.248L136.314 29.6314L114.241 32.3207L38.1344 41.6127L24.4573 43.2875L9.31939 45.1395V41.1296H9.30334ZM25.3081 45.3005C30.9267 45.0268 36.6576 44.5275 42.0995 43.2714L40.4461 48.9078L39.0976 49.0689L34.8757 49.552L30.2364 50.0834L26.9134 50.4699L25.3081 45.3005ZM9.30334 61.0986L155.883 45.5421V54.2705L131.787 56.6217C131.771 56.6217 131.755 56.6055 131.723 56.5894C131.611 56.5572 131.514 56.5894 131.434 56.6539L129.219 56.8632L114.241 58.3287L42.9503 65.3017L24.4413 67.1053L9.30334 68.5869V61.0986ZM159.655 55.9936C159.8 56.0902 159.703 56.3318 159.543 56.2674C158.676 55.9775 157.938 55.43 157.135 55.0112C157.055 54.9629 157.119 54.8502 157.215 54.8824C158.018 55.2528 158.901 55.4944 159.655 55.9936ZM135.704 67.6207C135.367 67.4435 135.03 67.2503 134.677 67.0892C134.645 67.0731 134.661 67.0248 134.693 67.0409C135.046 67.1859 135.415 67.2986 135.785 67.4274C135.945 67.4596 135.849 67.6851 135.704 67.6207ZM46.8673 67.8622C45.888 67.5079 44.8606 66.9604 43.9777 66.3968C43.9135 66.3485 43.9456 66.2357 44.0419 66.2679C45.0372 66.5739 46.1288 66.9926 47.0278 67.5241C47.2044 67.6207 47.0759 67.9428 46.8673 67.8622ZM44.2667 75.3828C43.4159 74.8836 42.533 74.4005 41.7624 73.7724C41.7143 73.7402 41.7624 73.6436 41.8266 73.6597C42.7416 74.014 43.6085 74.5454 44.4593 75.0446C44.668 75.1896 44.4754 75.5116 44.2667 75.3828ZM42.4206 75.6405C42.244 75.4955 41.9871 75.3023 41.939 75.0607C41.939 75.0285 41.955 74.9963 41.9872 74.9963C42.244 74.9802 42.4848 75.2218 42.6774 75.3828C42.854 75.5438 42.5972 75.7854 42.4206 75.6405ZM114.659 58.8923L114.643 58.8601L115.365 58.7957C115.124 58.8118 114.9 58.8601 114.659 58.8923ZM131.482 57.2014C131.498 57.2014 131.498 57.2175 131.514 57.2175C131.386 57.2175 131.258 57.2336 131.113 57.2336L131.482 57.2014ZM136.796 67.0409C135.929 66.6705 135.062 66.2196 134.276 65.7204C134.179 65.656 134.243 65.4788 134.356 65.5272C135.239 65.8492 136.138 66.2679 136.972 66.735C137.181 66.8477 137.005 67.1376 136.796 67.0409ZM139.894 58.7957C138.979 58.4414 138.048 57.7489 137.358 57.0565C137.31 57.0081 137.374 56.9276 137.422 56.9598C137.887 57.2175 138.321 57.5235 138.77 57.7811C139.172 58.0066 139.621 58.2159 140.006 58.4736C140.183 58.5863 140.087 58.8762 139.894 58.7957ZM41.939 68.1199L40.4461 73.1443L26.9937 74.3521H26.9134L25.3884 69.4082C30.8143 69.6015 36.6415 68.9412 41.939 68.1199ZM115.108 60.1967C118.335 60.2289 121.578 59.8908 124.788 59.6492C128.256 59.3915 131.852 59.3754 135.303 58.7957L135.175 59.1983L133.377 64.7381L120.422 65.9137L117.147 66.2035L115.108 60.1967ZM160.458 20.6936C159.623 20.3555 158.853 19.9045 158.146 19.357C158.082 19.3087 158.13 19.196 158.211 19.2443C158.997 19.6469 159.784 20.0495 160.57 20.436C160.699 20.5004 160.602 20.7419 160.458 20.6936ZM166.558 19.9045C165.065 19.2765 163.701 18.584 162.497 17.4728C162.432 17.4084 162.513 17.3118 162.593 17.3601C163.941 18.1331 165.258 19.0027 166.654 19.6791C166.783 19.7274 166.686 19.9529 166.558 19.9045Z" fill="#BDBDBD"/>
<path d="M115.189 34.3981L117.147 40.1312L133.216 38.2953L133.377 38.2792L135.399 31.9825C128.785 33.1581 121.931 34.1727 115.189 34.3981ZM132.558 36.4434C129.09 37.2163 125.575 37.3935 122.059 37.7317C121.915 37.7478 121.899 37.5223 122.027 37.4901C125.495 36.7493 128.898 35.8636 132.429 35.5576C132.943 35.5093 133.056 36.3306 132.558 36.4434Z" fill="white"/>
<path d="M9.84914 36.9908C20.8775 34.9939 32.0985 33.915 43.2072 32.4978C55.7285 30.9035 68.2658 29.2931 80.7871 27.7149C83.4038 27.3768 86.0044 27.0547 88.621 26.7165L162.095 17.1346L165.483 2.06128L164.969 2.20622C109.105 17.4889 54.1071 25.5731 5.90011 25.5731C4.7764 25.5731 3.66875 25.5731 2.5611 25.557H2.20793L4.68008 37.6511L9.84914 36.9908ZM163.958 4.36415C163.364 7.53664 162.513 10.8863 161.325 13.8977C160.602 15.7336 158.981 16.2972 157.167 16.571C150.81 17.505 144.405 17.811 138.032 18.439C137.887 18.4551 137.855 18.2136 138 18.1814C143.201 17.2957 148.354 16.1201 153.587 15.3954C154.872 15.2182 156.204 15.1377 157.456 14.8479C158.371 14.6385 158.997 14.1554 159.431 13.5273C154.262 14.413 148.948 14.8801 143.731 15.2182C143.506 15.2343 143.458 14.8801 143.683 14.8317C149.125 13.5434 154.727 12.3356 160.281 11.6915C160.362 11.466 160.426 11.2245 160.506 10.999C160.522 10.9507 160.538 10.9024 160.554 10.8541C159.559 11.1117 158.483 11.1439 157.472 11.2406C155.995 11.3694 154.502 11.5948 153.009 11.5465C152.833 11.5465 152.801 11.305 152.961 11.2406C154.358 10.7091 155.851 10.4031 157.312 10.0811C158.516 9.8073 159.752 9.37249 160.988 9.43691C161.084 9.09873 161.196 8.76054 161.309 8.42236C160.217 8.80885 158.901 8.95379 157.906 8.74444C157.761 8.71223 157.793 8.53509 157.906 8.48677C158.628 8.1969 159.415 8.06807 160.137 7.81041C160.667 7.61716 161.18 7.3917 161.694 7.19845C161.806 6.87637 161.919 6.53819 162.031 6.21611C161.566 6.28053 161.084 6.26442 160.651 6.31273C160.442 6.32884 160.426 6.02286 160.602 5.95845C161.164 5.74909 161.742 5.42701 162.352 5.33039C162.513 4.89558 162.673 4.46077 162.85 4.04207C163.123 3.3657 164.102 3.60726 163.958 4.36415Z" fill="white"/>
<path d="M38.8408 57.3946V50.9691C36.8502 51.2912 34.8275 51.4683 32.8209 51.6455C31.3761 51.7743 29.9153 51.9354 28.4866 51.7421V52.4829V58.4736L38.8408 57.3946ZM31.5206 56.7666C33.2383 56.3156 34.988 55.8003 36.7699 55.6715C37.1713 55.6393 37.2355 56.2673 36.8662 56.364C35.1325 56.8149 33.3185 56.8793 31.5527 57.0081C31.4082 57.0242 31.3922 56.8149 31.5206 56.7666Z" fill="white"/>
<path d="M28.5027 50.8717C28.5503 50.8559 28.582 50.8401 28.6296 50.8242L28.5027 50.8401V50.8717Z" fill="white"/>
<path d="M24.4413 43.2715L38.1184 41.5967L114.225 32.3047L136.298 29.6153L155.867 27.2319V19.969C143.811 21.982 131.563 23.1415 119.443 24.6714C106.921 26.2496 94.384 27.8438 81.8627 29.422C68.9721 31.0485 56.0816 32.675 43.1751 34.2854C31.9219 35.7026 20.6207 37.4901 9.28728 38.2631V41.1135V45.1073L24.4413 43.2715ZM137.294 27.2319C140.135 26.7166 142.96 26.169 145.818 25.7342C147.937 25.4121 150.73 25.541 152.335 24.2204C149.478 24.9451 146.251 24.7197 143.378 24.6875C143.105 24.6875 143.121 24.301 143.378 24.2849C146.684 24.0272 149.975 22.9643 153.282 22.8838C153.395 22.5778 153.491 22.2397 153.539 21.8693C153.587 21.4667 154.181 21.3056 154.294 21.7726C154.952 24.2366 154.133 25.9758 151.549 26.3462C146.829 27.0064 142.061 27.1997 137.31 27.5057C137.181 27.4896 137.149 27.248 137.294 27.2319Z" fill="white"/>
<path d="M30.2364 50.0674L34.8757 49.5359L39.0976 49.0528L40.4461 48.8918L42.0995 43.2554C36.6415 44.5115 30.9267 45.0107 25.3081 45.2845L26.9134 50.4378L30.2364 50.0674ZM36.3686 47.845C37.2997 47.7001 38.3271 47.3136 39.2742 47.3619C39.7076 47.378 39.8361 48.0383 39.3866 48.1349C38.4555 48.3442 37.38 48.1671 36.4328 48.1993C36.2241 48.1993 36.176 47.8772 36.3686 47.845Z" fill="white"/>
<path d="M120.165 48.7629L123.199 48.4408L131.338 47.5712L131.482 47.5551V40.1794C131.129 40.1955 130.776 40.1955 130.423 40.2116C126.747 40.9846 122.717 41.6449 119.025 41.4839V48.8756L120.165 48.7629ZM124.05 46.8948C126.024 46.4439 128.143 46.1218 130.15 46.0252C130.648 45.993 130.776 46.8304 130.262 46.9109C128.256 47.2008 126.105 47.3135 124.082 47.2491C123.905 47.233 123.841 46.9431 124.05 46.8948Z" fill="white"/>
<path d="M123.263 409.203L131.466 410.378V66.6384C131.402 66.6384 131.354 66.6384 131.29 66.6384C127.228 67.1377 123.087 67.5886 119.009 67.508V67.5402V408.591L123.263 409.203Z" fill="white"/>
<path d="M24.4573 67.1215L42.9664 65.3178L114.258 58.3448L129.235 56.8793L131.45 56.67C131.531 56.6056 131.627 56.5734 131.739 56.6056C131.755 56.6056 131.771 56.6217 131.803 56.6378L155.899 54.2866V45.5582L9.31938 61.1147V68.6191L24.4573 67.1215ZM131.868 52.6118C138.963 51.3235 146.203 49.9224 153.427 49.4876C153.523 49.0045 153.571 48.4892 153.571 47.9094C153.571 47.3941 154.374 47.2652 154.486 47.7806C155.016 50.0996 154.904 52.1609 152.608 53.3526C151.549 53.9001 150.072 53.8679 148.916 53.9645C146.781 54.1417 144.646 54.3027 142.511 54.4798C133.938 55.1723 125.366 55.8004 116.762 55.9614C116.569 55.9614 116.521 55.6393 116.714 55.6232C122.814 54.7536 128.898 54.1094 135.03 53.5619C138.241 53.272 141.435 53.0144 144.646 52.7567C146.428 52.6118 148.21 52.4991 149.991 52.3219C151.388 52.1931 152.287 51.6938 152.833 50.9209C145.946 52.1126 138.867 52.499 131.916 52.9339C131.723 52.95 131.691 52.644 131.868 52.6118Z" fill="white"/>
<path d="M27.0097 74.3521L40.4621 73.1443L41.955 68.1199C36.6576 68.9412 30.8303 69.6175 25.4044 69.4082L26.9295 74.3521H27.0097ZM31.5688 72.5646C34.0891 72.1459 36.5773 71.8882 39.1297 71.7755C39.4026 71.7594 39.4668 72.2103 39.1939 72.2586C36.6736 72.6129 34.1533 72.8222 31.6009 72.8705C31.4404 72.8705 31.3922 72.5968 31.5688 72.5646Z" fill="white"/>
<path d="M114.643 58.8436L114.659 58.8756C114.9 58.8436 115.124 58.7955 115.365 58.7634L114.643 58.8436Z" fill="white"/>
<path d="M131.514 57.2174C131.498 57.2174 131.498 57.2014 131.482 57.2014L131.113 57.2335C131.242 57.2335 131.37 57.2335 131.514 57.2174Z" fill="white"/>
<path d="M120.422 65.9136L133.377 64.738L135.175 59.1983L135.303 58.7957C131.868 59.3754 128.256 59.3915 124.788 59.6492C121.578 59.8746 118.335 60.2289 115.108 60.1967L117.147 66.2196L120.422 65.9136ZM122.525 64.0617C125.575 63.5946 128.657 62.7572 131.755 62.7572C132.269 62.7572 132.381 63.5463 131.884 63.6591C128.85 64.3354 125.655 64.2066 122.573 64.3998C122.38 64.3998 122.332 64.0778 122.525 64.0617Z" fill="white"/>
<path d="M32.7406 396.174L38.8408 397.06V75.1575C38.5839 75.1575 38.3431 75.1414 38.0863 75.1414C34.988 75.7211 31.5848 76.2525 28.4866 76.011V395.563L32.7406 396.174Z" fill="white"/>
<path d="M162.834 4.05815C162.657 4.49295 162.497 4.91166 162.336 5.34647C161.742 5.44309 161.148 5.76517 160.586 5.97452C160.41 6.03894 160.426 6.34491 160.635 6.32881C161.068 6.2805 161.55 6.2966 162.015 6.23219C161.903 6.55427 161.79 6.89245 161.678 7.21453C161.148 7.39167 160.635 7.63323 160.121 7.82648C159.382 8.08415 158.612 8.21298 157.889 8.50285C157.777 8.55116 157.745 8.7283 157.889 8.76051C158.885 8.96986 160.201 8.82493 161.293 8.43843C161.18 8.77662 161.084 9.1148 160.972 9.45298C159.736 9.40467 158.483 9.82338 157.295 10.0971C155.835 10.4353 154.342 10.7413 152.945 11.2566C152.785 11.321 152.801 11.5626 152.993 11.5626C154.486 11.6109 155.979 11.4016 157.456 11.2566C158.467 11.16 159.543 11.1278 160.538 10.8701C160.522 10.9184 160.506 10.9668 160.49 11.0151C160.426 11.2405 160.346 11.4821 160.265 11.7075C154.711 12.3517 149.108 13.5434 143.667 14.8478C143.458 14.8961 143.49 15.2504 143.715 15.2343C148.932 14.8961 154.245 14.4291 159.414 13.5434C158.965 14.1715 158.355 14.6546 157.44 14.8639C156.188 15.1538 154.839 15.2343 153.571 15.4115C148.338 16.1361 143.185 17.3117 137.984 18.1975C137.839 18.2297 137.871 18.4712 138.016 18.4551C144.405 17.8271 150.794 17.5211 157.151 16.5871C158.949 16.3294 160.586 15.7496 161.309 13.9138C162.497 10.9023 163.347 7.55271 163.941 4.38023C164.102 3.60723 163.123 3.36567 162.834 4.05815Z" fill="#BDBDBD"/>
<path d="M137.326 27.4735C142.077 27.1675 146.845 26.9743 151.565 26.314C154.149 25.9436 154.968 24.2044 154.31 21.7405C154.181 21.2895 153.603 21.4345 153.555 21.8371C153.507 22.2236 153.411 22.5618 153.298 22.8516C149.991 22.9321 146.701 24.0111 143.394 24.2527C143.137 24.2688 143.121 24.6553 143.394 24.6553C146.267 24.6875 149.478 24.9129 152.351 24.1883C150.762 25.5249 147.969 25.38 145.834 25.702C142.976 26.1368 140.151 26.7005 137.31 27.1997C137.149 27.248 137.181 27.4896 137.326 27.4735Z" fill="#BDBDBD"/>
<path d="M132.446 35.5576C128.914 35.8636 125.495 36.7493 122.043 37.4901C121.915 37.5223 121.931 37.7477 122.075 37.7316C125.591 37.3934 129.106 37.2163 132.574 36.4433C133.056 36.3306 132.943 35.5093 132.446 35.5576Z" fill="#BDBDBD"/>
<path d="M124.098 47.2492C126.121 47.3136 128.272 47.217 130.278 46.911C130.776 46.8305 130.664 46.0092 130.166 46.0253C128.143 46.1219 126.024 46.444 124.066 46.8949C123.841 46.9432 123.905 47.2331 124.098 47.2492Z" fill="#BDBDBD"/>
<path d="M131.916 52.9338C138.867 52.499 145.946 52.1125 152.833 50.9208C152.287 51.6938 151.388 52.177 149.991 52.3219C148.21 52.499 146.428 52.6118 144.646 52.7567C141.435 53.0144 138.241 53.2881 135.03 53.5619C128.898 54.1094 122.814 54.7536 116.714 55.6232C116.521 55.6554 116.569 55.9775 116.762 55.9614C125.366 55.8004 133.938 55.1723 142.511 54.4798C144.646 54.3027 146.781 54.1416 148.916 53.9645C150.072 53.8679 151.549 53.9001 152.608 53.3526C154.904 52.1448 155 50.0995 154.486 47.7806C154.374 47.2652 153.571 47.378 153.571 47.9094C153.571 48.473 153.523 49.0045 153.427 49.4876C146.203 49.9385 138.979 51.3234 131.868 52.6118C131.691 52.644 131.723 52.9499 131.916 52.9338Z" fill="#BDBDBD"/>
<path d="M122.557 64.3838C125.639 64.1745 128.834 64.3033 131.868 63.643C132.381 63.5303 132.253 62.7412 131.739 62.7412C128.641 62.7412 125.559 63.5786 122.509 64.0456C122.332 64.0778 122.38 64.3999 122.557 64.3838Z" fill="#BDBDBD"/>
<path d="M31.6169 72.8706C34.1694 72.8223 36.6736 72.613 39.21 72.2587C39.4829 72.2265 39.4187 71.7594 39.1458 71.7756C36.5934 71.8883 34.1052 72.1459 31.5848 72.5647C31.3922 72.5969 31.4404 72.8706 31.6169 72.8706Z" fill="#BDBDBD"/>
<path d="M31.5527 57.0082C33.3185 56.8794 35.1325 56.815 36.8662 56.3641C37.2515 56.2675 37.1713 55.6394 36.7699 55.6716C34.9881 55.8004 33.2383 56.3158 31.5206 56.7667C31.3922 56.815 31.4082 57.0243 31.5527 57.0082Z" fill="#BDBDBD"/>
<path d="M36.4168 48.1992C37.38 48.1831 38.4394 48.3442 39.3705 48.1348C39.82 48.0382 39.6916 47.3779 39.2581 47.3618C38.311 47.3296 37.2836 47.7 36.3526 47.845C36.176 47.8772 36.2241 48.1992 36.4168 48.1992Z" fill="#BDBDBD"/>
<path d="M162.593 17.3441C162.513 17.2957 162.432 17.4085 162.497 17.4568C163.701 18.568 165.065 19.2604 166.558 19.8885C166.686 19.9368 166.783 19.7275 166.654 19.663C165.258 18.9867 163.941 18.1171 162.593 17.3441Z" fill="white"/>
<path d="M158.211 19.2282C158.13 19.1799 158.066 19.2926 158.146 19.3409C158.869 19.8885 159.623 20.3394 160.458 20.6776C160.602 20.742 160.699 20.5004 160.57 20.4199C159.768 20.0334 158.981 19.6469 158.211 19.2282Z" fill="white"/>
<path d="M160.362 29.7119C159.768 29.2127 159.029 28.8262 158.355 28.4397C157.761 28.1176 157.151 27.6345 156.461 27.5701C156.461 27.5701 156.445 27.5701 156.461 27.5862C156.862 28.1337 157.584 28.4236 158.162 28.7618C158.837 29.1483 159.559 29.5831 160.281 29.8407C160.362 29.8729 160.426 29.7602 160.362 29.7119Z" fill="white"/>
<path d="M140.504 32.0952C140.023 31.6926 139.38 31.4672 138.819 31.2095C138.722 31.1612 138.658 31.29 138.738 31.3383C139.252 31.6765 139.782 32.0952 140.376 32.3046C140.488 32.3368 140.6 32.1758 140.504 32.0952Z" fill="white"/>
<path d="M134.308 38.8912C134.243 38.859 134.163 38.9395 134.227 38.9878C135.03 39.6642 135.945 40.3728 136.94 40.7109C137.037 40.7431 137.133 40.5982 137.053 40.5338C136.266 39.8413 135.255 39.3421 134.308 38.8912Z" fill="white"/>
<path d="M134.886 40.7914C134.837 40.7753 134.789 40.8236 134.837 40.8558C135.014 41.033 135.175 41.2262 135.431 41.3067C135.528 41.3389 135.56 41.2262 135.512 41.1618C135.335 40.9686 135.11 40.888 134.886 40.7914Z" fill="white"/>
<path d="M44.2827 42.112C44.2988 42.1281 44.3309 42.112 44.3148 42.0798C44.4272 42.273 44.7643 42.4019 44.9409 42.5146C45.1977 42.6756 45.4706 42.8206 45.7275 42.9655C46.193 43.2393 46.6746 43.513 47.1883 43.6902C47.3649 43.7546 47.4291 43.513 47.3007 43.4164C46.4177 42.7723 45.2459 42.273 44.2185 41.951C44.1864 41.9348 44.1543 41.9832 44.1864 42.0154C44.2185 42.0476 44.2506 42.0798 44.2827 42.112Z" fill="white"/>
<path d="M44.3469 51.5006C44.4754 51.565 44.6359 51.3879 44.5235 51.2752C43.769 50.5988 42.7898 50.0996 41.9229 49.6004C41.8748 49.5681 41.8106 49.6487 41.8587 49.6809C42.6293 50.3089 43.448 51.0336 44.3469 51.5006Z" fill="white"/>
<path d="M42.533 51.7905C42.6774 51.8871 42.8059 51.6616 42.6614 51.565C42.4527 51.4201 42.2119 51.3396 41.9872 51.2268C41.9551 51.2107 41.9069 51.259 41.939 51.2912C42.1316 51.4523 42.3082 51.6455 42.533 51.7905Z" fill="white"/>
<path d="M157.199 54.8824C157.119 54.8502 157.039 54.9629 157.119 55.0112C157.922 55.4299 158.676 55.9775 159.527 56.2673C159.687 56.3318 159.784 56.0741 159.639 55.9936C158.901 55.4944 158.018 55.2528 157.199 54.8824Z" fill="white"/>
<path d="M140.023 58.4897C139.637 58.232 139.188 58.0388 138.786 57.7972C138.321 57.5395 137.887 57.2336 137.438 56.9759C137.374 56.9437 137.326 57.0242 137.374 57.0725C138.064 57.765 138.995 58.4575 139.91 58.8118C140.087 58.8762 140.183 58.5863 140.023 58.4897Z" fill="white"/>
<path d="M136.972 66.7351C136.138 66.2681 135.255 65.8655 134.356 65.5273C134.243 65.479 134.179 65.6561 134.276 65.7205C135.062 66.2198 135.929 66.6707 136.796 67.0411C137.005 67.1377 137.181 66.8478 136.972 66.7351Z" fill="white"/>
<path d="M134.709 67.0248C134.677 67.0087 134.661 67.0731 134.693 67.0731C135.046 67.2342 135.383 67.4274 135.72 67.6045C135.865 67.6851 135.961 67.4596 135.801 67.3952C135.431 67.2825 135.062 67.1697 134.709 67.0248Z" fill="white"/>
<path d="M47.0117 67.5081C46.1127 66.9766 45.0211 66.5579 44.0259 66.252C43.9456 66.2197 43.8974 66.3486 43.9616 66.3808C44.8446 66.9605 45.8559 67.5081 46.8512 67.8462C47.0759 67.9429 47.2043 67.6208 47.0117 67.5081Z" fill="white"/>
<path d="M44.4593 75.0606C43.6085 74.5614 42.7416 74.03 41.8266 73.6757C41.7624 73.6596 41.7142 73.7401 41.7624 73.7884C42.5329 74.4165 43.4158 74.8996 44.2667 75.3988C44.4753 75.5115 44.668 75.1895 44.4593 75.0606Z" fill="white"/>
<path d="M41.9871 75.0125C41.955 75.0125 41.939 75.0447 41.939 75.0769C41.9711 75.3185 42.244 75.5117 42.4206 75.6566C42.5971 75.8016 42.854 75.5439 42.6774 75.399C42.4848 75.2379 42.244 74.9964 41.9871 75.0125Z" fill="white"/>
</svg>
