<svg width="213" height="137" viewBox="0 0 213 137" fill="none" xmlns="http://www.w3.org/2000/svg">
<path d="M212.939 100.325C211.305 93.2722 206.877 87.9007 200.095 84.7215C203.84 80.6898 204.572 75.2573 205.279 69.9954C205.974 64.8187 206.621 59.9222 209.902 56.2315C210.292 55.793 210.439 55.2327 210.317 54.6968C210.182 54.1486 209.78 53.6736 209.207 53.4422C206.877 52.4921 204.34 52.0049 201.669 52.0049C197.815 52.0049 193.985 53.028 190.728 54.8795C192.606 51.4446 194.741 48.1559 197.302 44.7332C198.107 43.6491 198.315 42.699 197.912 41.8951C197.388 40.8354 195.961 40.3482 193.448 40.3482C191.484 40.3482 189.411 40.6527 188.618 40.7623L188.435 40.7867C180.312 41.9073 171.993 44.1972 164.211 47.4494C167.468 41.8099 169.663 35.4273 170.871 28.0581C171.554 23.9168 171.786 19.4344 171.554 14.7327C171.444 12.455 171.139 10.1894 170.883 8.47199C170.834 8.13094 170.785 7.76553 170.737 7.38793C170.529 5.74357 170.298 3.89215 169.541 2.47922C168.907 1.29772 167.919 0.676514 166.675 0.676514C165.065 0.676514 163.321 1.72403 161.93 2.57666C161.528 2.82027 161.137 3.0517 160.82 3.22222C155.539 5.99936 151.343 8.44763 147.611 10.9203C141.695 14.8545 136.95 19.1786 133.499 23.7463C131.95 25.4515 130.583 27.303 129.51 29.1422C129.156 29.0569 128.803 29.0082 128.449 28.996C127.132 28.9351 126.022 29.2031 125.07 29.5807C124.558 26.3894 123.29 23.1616 121.216 19.7267C120.021 17.7413 118.569 15.9142 117.057 14.075C116.886 13.8679 116.666 13.5512 116.41 13.198C114.873 11.0542 113.483 9.2759 112.007 9.2759C104.213 9.2759 96.2361 15.3418 91.9671 21.6269C91.9305 21.5903 91.8939 21.5538 91.8573 21.5172C87.881 17.4733 82.8923 14.9398 78.0744 12.5037C73.4639 10.1651 68.6948 7.75335 64.9868 4.02613C64.6453 3.68508 64.1696 3.49019 63.6573 3.49019C63.1329 3.49019 62.6572 3.70944 62.34 4.08704C56.9733 10.6767 54.5216 18.8254 55.3876 26.8888C55.3144 26.7914 55.2291 26.7061 55.1559 26.6087C53.8386 25.0496 52.3505 23.4418 50.3258 21.4198C50.1062 21.2006 49.8501 20.9082 49.5695 20.6037C48.5084 19.4344 47.1911 17.9849 45.8006 17.5951C45.3615 17.4733 44.9468 17.4124 44.5443 17.4124C41.4706 17.4124 40.6534 20.7255 40.0557 23.1494C39.9947 23.4174 39.9215 23.6732 39.8606 23.9168C38.2383 30.0801 37.8236 36.7306 38.6408 43.2715C35.8233 41.9682 32.7984 41.6028 29.7003 41.3348C27.7365 41.1643 25.7606 41.006 23.7968 40.8476C19.5644 40.4944 15.1734 40.1411 10.88 39.7148L10.7336 39.727C10.2457 39.727 9.75783 39.9584 9.40411 40.3604C9.06259 40.738 8.90403 41.2252 8.95282 41.6759C9.69685 47.9853 12.6364 54.5262 16.9054 59.5202C15.5149 59.7151 14.0147 60.0683 12.3558 60.5677L12.2827 60.5921C11.746 60.7505 10.6848 61.0671 9.9164 61.6031C9.4773 61.7492 9.11138 62.0659 8.90403 62.4557C8.68448 62.8698 8.67228 63.3327 8.85524 63.759C13.3072 74.3804 20.4914 83.6984 29.2978 90.3733C24.5774 89.947 20.1255 90.6291 15.5393 92.4318C9.48949 94.8191 4.06173 99.399 0.268397 105.331C-0.0365331 105.806 -0.0853219 106.415 0.134228 106.963C0.353778 107.511 0.817272 107.913 1.36615 108.047C6.25723 109.204 10.3311 112.31 14.2708 115.319C15.1856 116.013 16.1004 116.707 17.0274 117.389C22.4063 121.324 28.6391 124.052 35.5549 125.514C38.5433 126.147 41.7023 126.464 44.9712 126.464C55.4486 126.464 65.182 123.285 71.7807 117.718C77.8671 119.533 84.7951 119.911 91.0401 118.778C91.8329 123.711 96.2239 127.183 99.8953 129.265C106.384 132.944 114.142 135.136 121.57 136.963C121.716 137 121.875 137.024 122.033 137.024C122.716 137.024 123.338 136.671 123.668 136.086C125.192 133.346 128.254 131.239 131.498 129.01C135.621 126.172 139.866 123.248 141.085 118.742C145.891 120.727 151.794 121.726 158.649 121.726C162.113 121.726 165.797 121.482 169.883 120.971C177.567 120.02 184.373 117.913 190.106 114.685C192.606 113.285 194.899 111.47 197.119 109.716C201.51 106.244 205.657 102.968 211.256 102.59C211.817 102.554 212.329 102.286 212.646 101.847C212.963 101.409 213.073 100.861 212.939 100.325ZM41.6536 52.6505C41.6414 52.6505 41.6292 52.6383 41.617 52.6383C41.3852 52.5652 41.2388 52.9062 41.4584 53.028C41.6048 53.1133 41.7389 53.1986 41.8731 53.2838C41.9707 53.5518 42.0561 53.832 42.1536 54.0999C41.4584 54.039 40.7632 53.9781 40.0801 53.832C39.9094 53.7954 39.8362 54.0512 40.0069 54.0877C40.6168 54.2583 41.1779 54.4166 41.7267 54.7577C42.0073 54.9404 42.3 55.1109 42.5927 55.2692C42.6903 55.5129 42.7757 55.7565 42.8733 56.0001C42.3244 55.927 41.7755 55.8539 41.2388 55.7443C40.0923 55.5007 38.9702 55.2205 37.8358 54.9404C37.5919 54.8795 37.5065 55.2205 37.7382 55.3058C38.9458 55.793 40.1411 56.2924 41.3242 56.8162C42.1658 57.1816 42.9221 57.681 43.7637 58.0464C43.8125 58.1438 43.8612 58.2413 43.91 58.3509C41.1657 57.4495 38.2383 56.8892 35.4696 56.268C35.1646 56.195 35.0671 56.6091 35.3476 56.7187C37.4943 57.5957 39.58 58.6432 41.6779 59.642C38.592 58.8138 35.5184 57.9368 32.4569 56.9623C32.2983 56.9136 32.2373 57.145 32.3837 57.2059C35.7867 58.6067 39.1043 60.1049 42.4098 61.664C41.6292 61.4325 40.8607 61.2255 40.0679 61.0428C29.188 56.6578 16.6249 54.5384 12.0509 42.6016C16.7346 42.9548 21.4184 43.3811 26.1021 43.7953C30.859 44.2216 36.2014 44.2094 40.2021 47.1449C40.5924 48.9963 41.0681 50.8477 41.6536 52.6505ZM61.8277 25.3419C63.1572 32.4553 68.7558 39.2763 66.8286 46.682C65.9504 44.2947 64.7917 41.956 63.4866 39.6905C62.3034 35.8536 61.3399 32.0168 60.9252 28.0094C60.9008 27.7658 60.5348 27.7536 60.5226 28.0094C60.4495 30.7013 60.6324 33.3688 61.1569 35.9754C60.3275 34.7452 59.4737 33.5515 58.5955 32.3822C58.5955 32.3335 58.6077 32.2969 58.5955 32.2482C56.9123 24.4284 58.0954 16.2188 62.0717 9.37335C60.8398 14.6109 60.8154 19.9703 61.8277 25.3419ZM198.168 76.1343C196.936 78.8384 195.216 81.0187 193.545 83.4182C193.363 83.3695 193.18 83.333 192.997 83.2964C193.911 82.0784 194.57 80.6776 195.021 79.216C195.095 78.9724 194.741 78.8262 194.619 79.0455C193.789 80.568 192.679 81.8104 191.423 82.9798C185.166 81.8713 178.36 82.2124 172.164 83.5644C172.481 83.3452 172.798 83.1137 173.103 82.8701C179.555 81.7008 185.178 75.8542 189.545 71.4327C192.289 68.6555 194.924 65.7932 197.802 63.15C200.474 60.7017 203.389 58.7285 206.414 56.7796C201.23 65.2207 204.047 76.7677 196.936 84.3927C196.473 84.2343 195.997 84.076 195.521 83.9298C197.022 81.6521 197.961 78.8871 198.644 76.317C198.705 76.0613 198.29 75.8664 198.168 76.1343ZM190.972 67.3766C190.155 68.2171 189.337 69.0575 188.508 69.8858C186.666 70.9333 184.849 71.993 182.995 73.004C183.178 72.8213 183.349 72.6264 183.532 72.4437C185.3 70.6775 187.203 69.094 189.276 67.6689C189.496 67.5106 189.313 67.2061 189.069 67.3157C186.825 68.278 184.276 69.4716 182.08 71.0307C182.361 70.4948 182.629 69.9467 182.897 69.3986C183.958 68.7043 184.983 67.9247 185.947 67.1086C186.154 66.9381 185.934 66.5361 185.678 66.6458C185.056 66.9016 184.434 67.1817 183.812 67.4619C183.995 67.0721 184.178 66.6701 184.349 66.2804C184.41 66.256 184.471 66.2316 184.52 66.1829C184.898 65.8662 185.325 65.6104 185.764 65.3912C185.959 65.2937 185.873 64.9527 185.654 64.9649C185.386 64.9892 185.129 65.038 184.873 65.0989C185.581 63.5154 186.252 61.9685 186.898 60.5068C192.692 55.5616 199.693 53.6614 207.109 55.452C200.62 57.2303 195.509 62.7237 190.972 67.3766ZM192.826 46.4506C189.581 50.7138 187.227 55.4398 185.007 60.2754C182.873 64.9283 180.812 69.5813 178.092 73.9175C175.323 78.3268 171.81 81.5181 167.809 84.7215C166.37 85.1722 164.992 85.6716 163.675 86.2319C163.614 83.7958 166.419 82.8579 168.078 81.5912C169.651 80.3853 170.993 78.948 172.274 77.4376C174.542 74.7458 176.128 71.4449 177.274 68.1318C177.36 67.876 176.957 67.7055 176.835 67.9491C174.579 72.4437 171.383 76.1222 167.468 79.2525C166.187 80.2757 164.48 81.2867 163.309 82.5656C163.284 82.1149 163.248 81.6764 163.187 81.2258C166.273 79.2525 168.858 76.3901 170.92 73.4059C171.09 73.1623 170.712 72.8822 170.517 73.1014C168.322 75.5862 165.821 77.4498 163.077 79.1795C163.065 79.0698 163.052 78.948 163.028 78.8384C162.991 78.5583 162.857 78.3025 162.821 78.0223C162.821 77.9736 162.772 77.937 162.723 77.9249C162.711 77.7056 162.638 77.4986 162.479 77.3646C159.698 74.9285 156.381 74.1489 152.929 74.3682C159.479 70.9577 164.906 65.915 170.359 60.7992C174.237 57.1572 178.116 53.5396 182.446 50.4214C186.166 47.7295 190.277 45.8781 194.46 44.0389C193.899 45.0864 192.875 46.3897 192.826 46.4506ZM109.982 89.3867C110.141 89.3258 110.287 89.2039 110.409 89.0091C110.47 88.8994 110.531 88.7898 110.592 88.6802C114.386 85.5133 118.484 83.5766 123.509 82.9554C128.449 82.3464 133.499 83.0772 138.414 83.601C146.379 84.4414 154.832 84.4901 161.381 79.4961C161.686 85.2453 160.796 90.2758 157.381 95.2576C155.161 98.4855 152.038 101.007 148.611 102.956C148.477 102.992 148.367 103.065 148.282 103.138C146.537 104.101 144.72 104.917 142.903 105.599C137.109 107.779 130.718 108.327 124.68 106.987C121.46 106.281 118.411 104.819 115.886 102.712C114.227 101.336 113.446 99.5939 112.397 97.9251C112.41 97.7181 112.434 97.511 112.446 97.2918C112.544 94.5999 111.592 91.7497 109.982 89.3867ZM152.112 79.6667C148.318 80.2148 144.622 80.4706 140.866 80.5924C147.538 77.596 154.466 73.2719 160.503 77.9614C156.661 80.8604 152.16 81.847 147.391 81.9931C149.099 81.5668 150.77 80.9822 152.355 80.2513C152.721 80.0808 152.441 79.6179 152.112 79.6667ZM189.825 44.2947C183.092 46.7795 177.152 52.1876 172.078 56.8162C166.004 62.3461 160.162 68.3023 153.209 72.7116C153.185 72.7116 153.173 72.7116 153.148 72.7116C149.465 73.4059 145.842 74.7945 142.244 75.8664C141.695 76.0247 141.134 76.1952 140.585 76.3536C143.964 74.7092 147.257 72.9309 150.465 71.1404C150.672 71.0186 150.526 70.6653 150.306 70.7506C146.659 72.0661 142.964 73.345 139.28 74.6727C143.5 72.261 147.818 70.0198 151.977 67.5228C152.234 67.3644 152.063 66.9137 151.77 67.0355C147.44 68.7164 143.293 70.8237 139.061 72.7116C138.621 72.9065 138.195 73.1014 137.755 73.2963C137.914 73.1745 138.06 73.0527 138.219 72.9431C140.768 71.0429 143.403 69.3742 146.037 67.608C146.147 67.535 146.086 67.3522 145.94 67.3888C141.415 68.7408 135.767 71.0186 131.803 74.3316C132.035 73.9419 132.279 73.5399 132.498 73.1501C138.939 66.865 145.647 61.0184 153.38 56.2802C162.333 50.799 172.2 46.9256 182.434 44.6357C184.934 44.0754 187.459 43.6735 189.996 43.2959C190.96 43.1619 191.923 43.0523 192.887 42.9548C191.777 43.2106 190.752 43.6735 189.825 44.2947ZM160.345 50.1656C159.564 50.5432 158.771 50.9208 158.003 51.3106C160.467 47.6808 161.711 43.71 162.613 38.984C162.65 38.7648 162.333 38.6673 162.272 38.8866C160.955 43.8562 157.881 48.8989 154.71 53.0646C153.612 53.6736 152.526 54.307 151.465 54.9647C155.698 50.3727 158.271 44.7697 159.893 38.3872C161.198 33.247 161.699 27.8876 162.199 22.6257C162.455 19.946 162.674 17.2663 162.955 14.5988C163.321 11.0908 163.126 5.45124 167.041 3.83125C167.053 3.83125 167.065 3.81907 167.078 3.80689C167.553 4.46463 167.687 5.78012 167.761 6.12117C171.164 21.2371 167.468 36.7063 160.345 50.1656ZM163.113 5.08583C163.406 4.92749 163.711 4.76914 164.004 4.6108C162.272 6.46222 161.882 9.50733 161.491 12.0774C160.613 17.8509 160.345 23.6975 159.637 29.4954C158.43 39.386 155.283 50.6041 147.501 57.4495C150.562 53.2473 152.953 48.2777 154.478 43.6856C154.551 43.4664 154.234 43.3568 154.112 43.5273C152.16 46.4384 150.343 49.3983 148.245 52.212C147.013 53.8685 145.647 55.4398 144.318 57.0232C144.671 56.3289 145.037 55.6225 145.379 54.9404C147.574 50.6772 149.44 46.0608 151.002 41.5175C151.063 41.3226 150.782 41.213 150.672 41.3835C148.416 45.196 146.196 49.0085 143.903 52.7966C142.695 54.8064 141.354 56.8162 140.085 58.8625C140.658 57.4495 141.219 56.0244 141.817 54.6237C143.756 50.0682 145.793 45.5858 147.879 41.1034C148.001 40.8354 147.647 40.6162 147.477 40.872C144.525 45.2082 141.5 49.9099 139 54.8307C141.158 48.9476 143.391 43.1132 145.952 37.3762C146.013 37.2422 145.83 37.1204 145.745 37.2544C142.744 41.8708 140.146 46.2923 138.329 51.1644C138.353 50.3118 138.365 49.4592 138.353 48.6065C140.317 45.0377 141.463 41.0425 143.525 37.498C143.647 37.2787 143.342 37.0229 143.171 37.2178C141.256 39.3981 139.28 41.9073 138.06 44.6601C137.975 43.9414 137.865 43.235 137.731 42.5285C138.67 40.7989 139.341 38.9353 140.256 37.1935C140.317 37.0717 140.158 36.9377 140.061 37.0473C139.073 38.1801 138.085 39.3616 137.304 40.6405C137.243 40.4213 137.182 40.202 137.133 39.995C137.39 39.6174 137.487 39.1667 137.633 38.7282C137.853 38.107 138.06 37.4858 138.268 36.8646C138.329 36.6941 138.097 36.6332 138.012 36.755C137.646 37.23 137.28 37.7172 136.926 38.1923C136.853 38.2897 136.767 38.3993 136.682 38.4968C136.463 37.8512 136.231 37.2057 135.962 36.5723C135.145 34.6599 133.596 32.4187 131.645 31.0789C132.401 29.8974 133.133 28.6915 133.913 27.5222C137.658 22.5282 142.183 18.2407 147.281 14.5379C150.502 12.1992 153.941 10.1773 157.393 8.20403C159.283 7.14433 161.198 6.12117 163.113 5.08583ZM135.718 41.9682C138.658 55.0622 134.279 70.5922 124.973 80.1539C124.778 80.3488 124.704 80.5802 124.717 80.7873C123.875 80.8238 123.058 80.8969 122.241 80.9943C123.729 78.4243 124.753 75.574 125.534 72.736C125.619 72.4315 125.18 72.334 125.07 72.602C123.79 75.708 122.082 78.4973 120.289 81.311C119.496 81.4694 118.716 81.6764 117.959 81.9322C120.935 76.4389 122.728 70.3486 123.692 64.1853C123.753 63.8321 123.229 63.6737 123.143 64.0392C121.545 70.8115 118.74 76.987 115.349 83.0285C114.41 83.5157 113.52 84.0882 112.654 84.7703C117.276 75.2086 119.545 64.2219 119.862 53.7589C119.874 53.5274 119.533 53.5396 119.508 53.7589C117.959 65.9759 114.105 76.9261 108.946 88.0346C108.433 87.45 107.884 86.9018 107.299 86.4146C110.629 78.5948 112.349 70.1659 112.824 61.7005C112.849 61.3716 112.373 61.396 112.324 61.7005C111.763 65.9271 110.885 70.0441 109.775 74.088C110.714 66.4143 109.141 58.5336 105.055 51.7004C104.628 50.9817 104.164 50.2874 103.676 49.6175C103.737 49.5323 103.798 49.4226 103.798 49.2886C104.408 40.7745 110.251 34.8061 118.801 34.2945C120.362 34.1971 121.777 34.0266 123.265 33.5393C125.4 32.8451 126.485 31.4199 129.01 31.9802C133.12 32.8938 134.938 38.4846 135.718 41.9682ZM98.6999 82.4438C97.8827 79.4961 96.9801 76.5728 96.0409 73.6617C95.9556 73.4181 95.614 73.5155 95.6628 73.7713C96.1507 76.7677 96.663 79.7641 97.2729 82.7361C96.7972 82.6874 96.3337 82.6509 95.858 82.6265C94.7724 78.6801 93.3941 74.8067 92.0891 70.9211C92.0037 70.6531 91.6134 70.7628 91.6621 71.0429C92.4306 74.8919 93.138 78.7775 94.0894 82.5778C93.6869 82.5778 93.2844 82.59 92.8819 82.6022C89.9911 76.3292 86.7589 70.4217 84.7219 63.759C84.6487 63.5154 84.295 63.6128 84.3438 63.8686C85.5635 70.2877 87.4663 77.1697 91.1011 82.724C90.2717 82.797 89.4545 82.8823 88.625 83.0041C84.6609 74.2707 81.4775 65.0623 78.8551 55.8539C78.7697 55.5616 78.3672 55.6834 78.4038 55.9757C79.8064 65.6348 82.746 74.5509 86.9906 83.2599C85.966 83.4426 84.9537 83.6497 83.9413 83.8811C82.0141 79.4109 79.8308 75.1599 78.3428 70.4948C78.2574 70.239 77.9281 70.3486 77.9647 70.6044C78.6477 75.2939 79.9162 80.1904 82.4776 84.2343C81.9166 84.3805 81.3677 84.5267 80.8188 84.6728C80.8066 84.6485 80.8066 84.6119 80.7944 84.5876C79.5625 81.9688 77.8671 79.5814 76.5986 76.9748C76.5254 76.8286 76.2814 76.9382 76.3424 77.0844C77.3792 79.7276 78.1476 82.5291 79.4771 85.0504C78.4648 85.3428 77.4646 85.6594 76.4766 85.9883C74.7446 84.2343 72.9028 82.59 70.9757 81.0674C67.5117 73.9784 65.7187 66.2438 66.3041 58.3387C66.9262 50.0438 70.9025 42.358 74.6714 35.0741C79.9894 37.0595 85.6245 38.0583 90.6986 40.6893C95.4067 43.1375 99.3708 46.8769 102.432 51.1644C109.397 60.921 109.897 73.9784 104.835 84.6485C102.859 83.7837 100.81 83.2112 98.7121 82.9067C98.7365 82.7727 98.7487 82.6143 98.6999 82.4438ZM115.471 32.7111C114.361 32.8816 113.3 33.1739 112.3 33.5881C112.41 32.37 112.471 31.152 112.568 29.9339C112.58 29.7269 112.251 29.6903 112.202 29.8852C111.836 31.2981 111.422 32.7111 111.105 34.124C110.617 34.3676 110.153 34.6478 109.702 34.9401C109.787 33.2714 109.714 31.5783 109.738 29.9339C109.738 29.8365 109.592 29.8121 109.568 29.9096C109.153 31.895 108.616 33.8926 108.372 35.9145C107.836 36.3652 107.323 36.8402 106.835 37.3518C107.116 34.0022 107.006 30.6039 106.945 27.2664C106.945 27.035 106.616 27.0472 106.592 27.2664C106.104 31.4078 105.274 35.5369 105.03 39.7026C104.616 40.3482 104.25 41.0303 103.945 41.7246C104.237 36.3165 104.006 30.8353 104.384 25.4515C104.396 25.3054 104.152 25.2688 104.116 25.415C103.201 30.2019 102.115 35.1837 101.713 40.129C101.396 38.9353 101.017 37.766 100.578 36.621C100.786 33.381 101.091 30.1045 101.578 26.901C101.603 26.7305 101.371 26.5965 101.286 26.7792C100.188 29.0935 99.5659 31.3956 99.383 33.8073C99.0049 33.0156 98.6024 32.2239 98.1633 31.4565C98.1877 30.1532 98.3584 28.8621 98.6146 27.5953C98.6633 27.3395 98.334 27.1933 98.1877 27.4126C97.6998 28.1556 97.3704 28.9351 97.1631 29.7634C95.9068 27.7414 94.4797 25.8291 92.9307 24.0508C97.2607 18.0215 103.176 14.075 110.446 12.4672C113.056 11.8825 116.837 18.4234 118.118 20.287C120.509 23.7706 122.009 27.6196 122.497 31.8097C120.301 32.5893 117.752 32.3578 115.471 32.7111ZM101.115 46.4384C100.627 45.9025 100.115 45.3909 99.6025 44.8915C98.2243 38.0339 94.7846 31.627 90.601 26.024C90.5034 25.89 90.3083 25.9996 90.3814 26.158C92.7721 31.5661 94.748 37.1082 96.9557 42.5772C96.5044 42.2118 96.0287 41.8708 95.5653 41.5297C95.5653 41.5054 95.5653 41.481 95.5531 41.4566C95.2481 39.9584 94.3821 38.5942 93.7479 37.2178C93.0526 35.6831 92.2476 34.1971 91.4182 32.7354C91.345 32.6136 91.1377 32.6989 91.1865 32.8329C91.7109 34.2093 92.1744 35.5978 92.6257 37.0108C92.9307 37.9852 93.1014 39.0205 93.3454 40.0193C93.3088 39.995 93.2722 39.9706 93.2478 39.9463C89.7716 37.7781 85.9051 36.5844 82.0141 35.4273C81.5994 34.8426 81.075 34.3189 80.6481 33.7464C80.5627 33.6368 80.3553 33.6977 80.4163 33.8439C80.5627 34.2458 80.6725 34.6478 80.7944 35.0619C79.904 34.7939 79.0014 34.526 78.1232 34.2458C77.9281 33.7099 77.4768 33.247 77.1475 32.7963C76.7327 32.2117 76.379 31.5905 76.0131 30.9693C75.8545 30.7013 75.4886 30.9327 75.6106 31.2007C75.9277 31.9072 76.2327 32.6136 76.4888 33.3566C76.5376 33.4906 76.5742 33.6246 76.6108 33.7586C76.0131 33.5515 75.4154 33.3323 74.83 33.113C74.3787 32.4066 73.903 31.7123 73.4761 30.9814C73.0492 30.2628 72.7199 29.4224 72.1222 28.8377C72.0856 28.8011 72.0124 28.8255 72.0124 28.8864C72.0124 29.7269 72.4027 30.543 72.6955 31.3225C72.9394 31.9924 73.1956 32.6623 73.4517 33.3323C73.4273 33.3566 73.4151 33.3932 73.3907 33.4175C73.1468 33.8926 72.8906 34.3798 72.6467 34.8548C72.3661 34.1849 71.9758 33.5637 71.6221 32.9425C71.0001 31.8584 70.5122 30.7135 69.9023 29.6294C69.8291 29.5076 69.6218 29.5929 69.6706 29.7269C70.1097 30.8962 70.5488 32.0533 70.8415 33.2714C71.122 34.4163 71.1464 35.5735 71.6343 36.6575C71.6465 36.6941 71.6709 36.7184 71.6831 36.7428C71.4514 37.2057 71.2196 37.6685 70.9879 38.1435C70.0121 35.5491 68.4996 33.0034 67.3409 30.5308C67.2189 30.2872 66.853 30.4577 66.914 30.7135C67.5726 33.2348 68.0361 35.9876 68.8655 38.5211C68.4386 37.8269 68.0605 37.1082 67.7068 36.3774C66.8896 34.2093 65.8894 32.0777 65.121 29.9948C62.3766 22.5769 62.2668 14.3673 63.8647 6.69365C70.8903 13.1371 80.6725 15.4148 87.9542 21.5781C95.5165 28.0216 99.4074 36.889 101.115 46.4384ZM66.1822 49.7271C66.0236 50.2631 65.865 50.799 65.7187 51.335C64.9502 49.6053 63.9013 48.0097 62.584 46.609C62.4498 46.4628 62.2425 46.6455 62.3278 46.8038C63.4012 48.9354 64.3648 51.1035 65.2186 53.3326C65.0844 53.9538 64.9624 54.575 64.8405 55.1962C64.4745 54.4044 64.0354 53.6249 63.6085 52.8575C62.5108 50.9086 61.5472 48.8745 60.5105 46.8891C60.3763 46.6455 59.9494 46.816 60.0592 47.084C60.8032 48.8989 61.535 50.7138 62.1083 52.5896C62.4742 53.7832 62.7547 55.0013 63.1329 56.1828C61.779 53.2717 60.0957 50.4823 58.4003 48.0219C58.2418 47.7905 57.8149 47.9244 57.9246 48.229C59.3639 52.1145 60.7422 56.2437 62.4132 60.1536C60.5592 56.2802 58.3515 52.5287 56.1682 49.0207C56.0219 48.7771 55.5706 48.9354 55.6926 49.2277C57.2538 52.9306 58.937 56.5604 60.2543 60.3607C60.3031 60.519 60.3641 60.6652 60.4129 60.8235C58.4125 57.1329 56.3756 53.4544 54.4362 49.715C54.3265 49.5079 53.9483 49.6541 54.0459 49.8733C54.9607 52.0414 55.8511 54.2217 56.7659 56.402C56.7171 56.4142 56.6561 56.4264 56.6073 56.4386C55.7657 54.5141 54.8022 52.6383 53.6922 50.7747C48.1791 41.5297 40.5802 31.9924 44.9712 20.7742C46.0324 21.1275 47.2887 22.4673 47.5936 22.7475C50.277 25.2566 52.7164 28.0216 55.0095 30.884C59.6932 36.7428 62.5718 43.2837 66.1822 49.7271ZM50.4477 49.045C53.7166 54.1365 56.1195 59.2035 57.5099 65.111C58.0954 67.608 58.6565 70.3852 59.7664 72.8213C59.7054 72.7847 59.6566 72.7482 59.6079 72.7116C55.9365 68.1927 52.3383 63.9052 49.5817 58.7163C49.472 58.5214 49.1426 58.6554 49.2158 58.8747C51.0332 63.7347 53.4483 68.6921 56.8391 72.7116C56.4488 72.5411 56.0463 72.3706 55.656 72.2001C45.0932 60.8844 39.763 46.5359 41.4828 30.9205C41.5682 30.1532 41.6901 29.3858 41.8243 28.6184C41.9585 35.8171 46.752 43.2837 50.4477 49.045ZM26.5412 60.9453C29.5783 63.2962 32.713 65.4277 36.2136 66.9746C34.2742 66.6458 32.3349 66.3413 30.3955 66.0489C25.8704 63.5032 21.8087 60.8722 18.3691 56.8162C15.7955 53.771 13.9781 50.2265 12.8315 46.4506C15.5881 51.8465 20.7475 55.4763 26.3582 58.0708C34.0669 61.6396 42.3244 63.6007 49.7525 67.7298C50.3868 68.5094 51.0576 69.2646 51.7407 70.0076C48.3498 68.2536 44.4955 67.3157 40.8363 66.3656C35.8721 65.0745 31.3835 62.8455 26.7973 60.6043C26.6022 60.4947 26.3338 60.7748 26.5412 60.9453ZM23.0528 63.8686C21.9307 64.1488 20.8817 64.368 19.7717 64.368C17.6982 64.0026 15.6369 63.5885 13.5756 63.1256C14.2098 62.9673 14.8319 62.8089 15.4661 62.6871C17.1737 62.3461 18.9301 62.2852 20.6499 62.0172C21.4062 62.675 22.2112 63.2962 23.0528 63.8686ZM45.142 70.6775C50.96 72.0417 56.4976 74.1733 61.6936 77.121C66.4505 79.8128 70.6585 83.2843 75.0861 86.439C73.4639 86.9871 71.8783 87.5596 70.3536 88.1077C66.3773 89.5572 62.34 91.0919 58.4125 92.8703C58.3759 92.8581 58.3393 92.8459 58.3028 92.8337C53.9361 91.9202 49.8135 91.3964 45.6786 89.5694C45.3371 89.4232 45.0322 89.8982 45.3737 90.0809C48.4962 91.7497 51.9358 93.4306 55.4608 94.271C54.9363 94.539 54.4118 94.7948 53.8874 95.0749C51.3503 94.2101 48.6791 93.8447 46.1299 92.9921C43.0074 91.9567 40.1655 90.1175 37.4455 88.3148C37.2626 88.193 37.043 88.4731 37.2016 88.6315C40.8363 91.9689 46.1177 95.4282 51.2528 96.5244C50.6795 96.8533 50.1184 97.1943 49.5574 97.5354C33.0545 92.1638 18.6374 80.568 11.8192 64.4046C22.7479 67.3644 34.1401 68.0953 45.142 70.6775ZM38.2261 94.9166C40.4582 96.0615 42.7879 97.036 45.1786 97.8643C44.9224 98.8996 44.6785 99.9227 44.215 100.885C44.0564 101.214 43.8125 101.506 43.5807 101.799C42.5805 102.627 41.6048 103.504 40.6778 104.43C39.5068 104.137 38.5921 103.553 37.9456 102.03C36.9454 99.667 37.4943 97.2309 38.2261 94.9166ZM34.9939 93.1261C35.7379 93.5646 36.4941 93.9909 37.2626 94.405C36.1892 95.7936 35.6403 97.645 35.6281 99.4721C35.0671 99.5452 34.4938 99.606 33.9205 99.6669C33.6888 99.6913 33.5912 100.069 33.8595 100.118C34.4572 100.215 35.0671 100.313 35.6769 100.434C35.7257 100.885 35.7989 101.323 35.9209 101.75C33.4814 101.665 30.6761 101.665 28.444 102.347C28.2976 102.395 28.2854 102.627 28.444 102.663C29.7125 102.956 31.0298 102.919 32.3349 102.98C33.7498 103.041 35.1524 103.26 36.5673 103.382C36.7503 103.723 36.9698 104.015 37.1894 104.296C33.2131 103.881 29.249 104.125 25.2117 104.722C25.0531 104.746 25.0897 105.002 25.2483 105.002C29.3954 105.087 33.5058 105.587 37.6041 106.135C35.7013 106.196 33.7863 106.305 31.8958 106.317C27.6268 106.354 23.3577 106.488 19.0887 106.646C18.9057 106.659 18.8448 106.951 19.0399 106.975C22.6015 107.572 26.4192 108.132 30.2492 108.425C28.9441 108.656 27.6511 108.9 26.3582 109.156C19.3326 108.766 12.307 107.84 5.40343 106.525C4.72038 106.232 4.01294 105.976 3.29331 105.745C10.4287 95.757 22.9064 90.9945 34.9939 93.1261ZM29.0538 111.08C37.3601 111.506 46.9715 111.811 55.0339 109.423C57.1928 110.349 59.3273 111.385 61.4618 112.42C57.8759 114.125 54.5338 116.025 50.6795 117.256C50.5575 117.292 50.5819 117.487 50.7039 117.475C54.9241 117.048 59.681 116.025 63.206 113.553C63.2914 113.492 63.3524 113.431 63.4134 113.358C63.9745 113.626 64.5233 113.882 65.0844 114.137C58.815 117.207 52.7652 119.874 45.642 120.386C45.3615 120.41 45.3615 120.812 45.642 120.824C53.1677 121.178 61.2179 119.826 67.2921 115.112C68.0361 115.428 68.7924 115.733 69.5486 116.013C64.2306 118.924 59.2419 121.543 53.1677 122.822C46.5446 124.223 39.6654 123.809 33.1399 122.128C26.8217 120.496 21.2964 117.268 16.137 113.37C13.7097 111.543 11.3069 109.704 8.73326 108.205C15.4173 109.765 22.1624 110.727 29.0538 111.08ZM62.5108 110.995C56.2414 108.023 50.0574 105.124 43.1294 104.637C51.021 98.0104 60.2421 93.8812 69.9145 90.3002C75.574 88.2052 81.2823 86.2806 87.2346 85.2453C91.1743 84.551 94.9798 84.6119 98.7609 85.16C98.8219 85.1966 98.8951 85.2209 98.9683 85.2331C108.47 86.4634 112.861 95.1967 109.007 103.82C105.457 111.738 96.2483 115.197 88.2225 116.257C79.0868 117.438 70.6585 114.856 62.5108 110.995ZM98.578 115.562C101.139 114.454 103.493 113.005 105.53 111.238C105.433 112.018 105.433 112.797 105.567 113.589C105.616 113.845 105.994 113.772 105.994 113.528C106.043 112.359 106.262 111.238 106.689 110.142C107.006 109.825 107.323 109.497 107.616 109.156C107.762 110.568 108.08 111.981 108.385 113.358C108.421 113.516 108.665 113.48 108.665 113.321C108.604 111.409 108.836 109.521 108.86 107.621C109.104 107.292 109.336 106.951 109.555 106.61C109.787 108.851 110.336 111.165 110.763 113.248C110.787 113.37 110.958 113.333 110.97 113.224C111.251 110.179 111.727 106.744 111.226 103.723C111.214 103.638 111.19 103.577 111.165 103.504C111.226 103.358 111.275 103.211 111.336 103.065C112.361 106.756 113.52 110.398 114.715 114.04C114.788 114.283 115.117 114.174 115.081 113.942C114.483 110.142 113.849 106.354 113.068 102.578C113.446 102.992 113.861 103.382 114.3 103.76C115.447 106.512 116.642 109.18 117.496 112.054C117.593 112.396 118.069 112.249 118.02 111.908C117.654 109.691 117.154 107.438 116.374 105.294C117.179 105.818 117.996 106.293 118.789 106.695C119.069 107.706 119.752 108.632 120.265 109.509C120.35 109.655 120.594 109.557 120.533 109.399C120.289 108.717 120.191 108.011 120.045 107.304C120.521 107.523 120.972 107.718 121.375 107.877C121.765 108.023 122.155 108.169 122.546 108.303C122.68 108.62 122.814 108.924 122.936 109.241C123.094 109.618 123.704 109.472 123.57 109.07C123.509 108.9 123.46 108.729 123.399 108.571C125.766 109.253 128.229 109.57 130.705 109.582C130.705 109.594 130.718 109.594 130.718 109.606C132.938 112.712 135.731 115.014 138.89 116.695C136.938 121.044 133.877 123.699 129.876 126.403C126.693 128.547 123.631 130.776 121.594 134.052C116.191 132.688 110.909 130.971 105.738 128.876C99.6269 126.403 94.8578 123.894 93.1136 117.402C94.992 116.927 96.8216 116.318 98.578 115.562ZM132.73 109.521C133.645 109.472 134.548 109.375 135.45 109.253C135.499 109.302 135.56 109.35 135.633 109.399C143.464 114.588 153.648 118.766 163.077 115.83C163.235 115.782 163.211 115.526 163.04 115.538C153.868 116.281 146.415 112.676 138.597 108.705C139.195 108.571 139.792 108.425 140.378 108.266C142.72 109.691 145.366 110.398 147.855 111.482C148.062 111.579 148.257 111.287 148.038 111.165C146.147 110.106 144.439 108.741 142.586 107.621C143.403 107.353 144.22 107.06 145.037 106.732C149.233 106.378 153.295 106.013 157.6 106.305C163.394 106.707 169.139 107.718 174.933 108.23C182.104 108.863 189.801 108.413 196.863 106.305C196.375 106.683 195.887 107.06 195.399 107.45C189.081 112.444 182.495 115.636 174.603 117.304C160.284 120.337 143.708 120.167 132.73 109.521ZM202.096 102.724C198.18 103.967 194.253 105.136 190.191 105.842C184.361 106.866 178.445 106.719 172.578 106.123C169.322 105.794 165.772 105.197 162.15 104.734C158.942 103.735 155.478 103.077 152.099 102.907C152.368 102.712 152.636 102.517 152.904 102.322C154.941 102.87 157.088 102.724 159.186 102.749C161.65 102.785 164.138 102.98 166.602 102.883C166.785 102.87 166.834 102.602 166.651 102.566C164.248 102.091 161.784 101.896 159.357 101.543C157.82 101.323 156.222 100.982 154.649 100.922C154.88 100.727 155.1 100.52 155.332 100.313C158.21 100.654 161.15 100.544 164.04 100.714C167.504 100.909 171.005 101.445 174.481 101.336C174.798 101.323 174.847 100.885 174.554 100.788C171.542 99.8009 168.346 99.5573 165.199 99.265C162.443 99.0092 159.552 98.7291 156.746 98.8752C157.051 98.5464 157.356 98.2053 157.637 97.8643C163.065 98.1566 168.529 98.2053 173.957 98.2906C174.03 98.2906 174.079 98.2297 174.079 98.1688C174.164 98.2053 174.237 98.0835 174.152 98.047C174.115 98.0348 174.079 98.0104 174.054 97.9982C174.018 97.9739 173.969 97.9982 173.957 98.0348C168.98 96.9994 163.796 96.4026 158.698 96.4757C158.966 96.0981 159.235 95.7083 159.491 95.3185C162.162 95.4769 164.894 95.2089 167.565 95.0262C167.858 95.0018 167.858 94.5999 167.565 94.5755C165.15 94.3441 162.687 94.0518 160.259 94.0639C160.357 93.8812 160.467 93.6985 160.564 93.5158C161.613 93.6133 162.699 93.5158 163.736 93.3818C164.04 93.3453 164.175 92.8581 163.821 92.7972C162.943 92.651 162.003 92.5049 161.089 92.517C161.723 91.2137 162.235 89.8495 162.626 88.4609C171.115 84.5023 180.665 83.1868 189.911 84.6972C198.461 86.0979 208.182 90.824 210.158 99.9471C207.206 100.264 204.572 101.311 202.096 102.724Z" fill="#000"/>
<path d="M110.446 12.4551C103.176 14.0629 97.2607 18.0093 92.9307 24.0387C94.4797 25.8048 95.9068 27.7171 97.1631 29.7513C97.3583 28.923 97.6876 28.1435 98.1877 27.4005C98.334 27.1812 98.6633 27.3152 98.6146 27.5832C98.3584 28.8499 98.1877 30.1411 98.1633 31.4444C98.5902 32.2117 99.0049 32.9913 99.383 33.7952C99.5659 31.3835 100.188 29.0935 101.286 26.7671C101.371 26.5844 101.615 26.7305 101.578 26.8889C101.103 30.0923 100.786 33.3689 100.578 36.6089C101.017 37.766 101.396 38.9353 101.713 40.1168C102.115 35.1594 103.213 30.1898 104.116 25.4029C104.14 25.2567 104.396 25.2932 104.384 25.4394C104.006 30.8353 104.237 36.3044 103.945 41.7125C104.262 41.006 104.628 40.3361 105.03 39.6905C105.274 35.537 106.116 31.3956 106.592 27.2543C106.616 27.035 106.945 27.0229 106.945 27.2543C107.006 30.5917 107.128 34.0023 106.835 37.3397C107.311 36.8281 107.823 36.3409 108.372 35.9024C108.604 33.8926 109.153 31.8829 109.568 29.8974C109.592 29.8 109.738 29.8244 109.738 29.9218C109.714 31.5783 109.787 33.2714 109.702 34.928C110.153 34.6356 110.617 34.3555 111.105 34.1119C111.422 32.6868 111.836 31.2738 112.202 29.8731C112.251 29.6782 112.58 29.7147 112.568 29.9218C112.471 31.1398 112.41 32.3579 112.3 33.5759C113.312 33.174 114.373 32.8695 115.471 32.6989C117.752 32.3579 120.301 32.5771 122.497 31.7854C121.997 27.6075 120.509 23.7463 118.118 20.2627C116.837 18.4113 113.056 11.8704 110.446 12.4551Z" fill="white"/>
<path d="M123.29 33.5394C121.801 34.0267 120.387 34.1972 118.825 34.2946C110.275 34.8062 104.433 40.7746 103.823 49.2888C103.811 49.4349 103.762 49.5324 103.701 49.6176C104.189 50.2997 104.652 50.9818 105.079 51.7005C109.165 58.5459 110.726 66.4145 109.799 74.0881C110.909 70.0442 111.775 65.9272 112.349 61.7006C112.385 61.3961 112.861 61.3718 112.849 61.7006C112.373 70.166 110.653 78.5949 107.323 86.4147C107.909 86.902 108.47 87.4501 108.97 88.0347C114.117 76.914 117.972 65.9638 119.533 53.759C119.557 53.5397 119.899 53.5276 119.887 53.759C119.582 64.2098 117.301 75.2087 112.678 84.7704C113.532 84.0883 114.434 83.5158 115.374 83.0286C118.764 76.9871 121.57 70.8238 123.168 64.0393C123.253 63.6739 123.765 63.8322 123.716 64.1854C122.741 70.3487 120.96 76.439 117.984 81.9323C118.74 81.6765 119.521 81.4817 120.313 81.3111C122.119 78.4975 123.826 75.7081 125.095 72.6021C125.205 72.322 125.644 72.4194 125.558 72.7361C124.79 75.5863 123.753 78.4244 122.265 80.9944C123.082 80.897 123.899 80.8239 124.741 80.7874C124.729 80.5803 124.802 80.3489 124.997 80.154C134.304 70.5802 138.682 55.0623 135.743 41.9683C134.962 38.4847 133.145 32.8939 129.059 31.9804C126.51 31.4201 125.424 32.8573 123.29 33.5394Z" fill="white"/>
<path d="M87.9053 21.566C80.6236 15.3905 70.8536 13.125 63.8158 6.68152C62.218 14.3552 62.3278 22.5648 65.0721 29.9827C65.8406 32.0655 66.8407 34.1971 67.658 36.3652C68.0117 37.0961 68.402 37.8147 68.8167 38.509C67.9873 35.9755 67.5238 33.2349 66.8651 30.7013C66.8041 30.4577 67.1823 30.275 67.292 30.5186C68.4508 32.9913 69.9632 35.5248 70.939 38.1314C71.1708 37.6685 71.4025 37.2057 71.6342 36.7307C71.622 36.7063 71.5977 36.6698 71.5855 36.6454C71.0976 35.5492 71.0732 34.4042 70.7926 33.2592C70.4999 32.0412 70.0608 30.884 69.6217 29.7147C69.5729 29.5807 69.7803 29.4955 69.8535 29.6173C70.4755 30.7013 70.9634 31.8463 71.5733 32.9304C71.927 33.5516 72.3173 34.1849 72.5978 34.8427C72.8418 34.3677 73.0979 33.8804 73.3419 33.4054C73.3541 33.3689 73.3785 33.3445 73.4028 33.3201C73.1345 32.6502 72.8906 31.9803 72.6466 31.3104C72.3661 30.5308 71.9636 29.7147 71.9636 28.8743C71.9636 28.8134 72.0368 28.789 72.0733 28.8256C72.6832 29.4102 73.0125 30.2507 73.4272 30.9693C73.8541 31.7001 74.3298 32.3944 74.7811 33.1009C75.3666 33.3323 75.9643 33.5394 76.5619 33.7464C76.5253 33.6125 76.4765 33.4785 76.4399 33.3445C76.1838 32.6015 75.8789 31.9072 75.5618 31.1886C75.4398 30.9206 75.8057 30.6892 75.9643 30.9571C76.3302 31.5783 76.6839 32.1995 77.0986 32.7842C77.4279 33.2471 77.8792 33.6977 78.0744 34.2337C78.9648 34.5138 79.8552 34.7818 80.7456 35.0498C80.6236 34.6356 80.5138 34.2337 80.3675 33.8317C80.3187 33.6855 80.526 33.6246 80.5992 33.7343C81.0261 34.3067 81.5384 34.8305 81.9653 35.4152C85.8562 36.5601 89.7227 37.7538 93.1989 39.9341C93.2355 39.9585 93.2721 39.9828 93.2965 40.0072C93.0648 38.9962 92.894 37.9731 92.5769 36.9986C92.1378 35.5979 91.6621 34.1971 91.1376 32.8207C91.0888 32.6868 91.2962 32.6015 91.3694 32.7233C92.1988 34.1849 92.9916 35.671 93.699 37.2057C94.3333 38.5821 95.2115 39.9463 95.5042 41.4445C95.5042 41.4688 95.5042 41.4932 95.5164 41.5176C95.9921 41.8586 96.4556 42.2119 96.9069 42.5651C94.7114 37.0961 92.7232 31.554 90.3326 26.1459C90.2716 25.9997 90.4546 25.8901 90.5521 26.0119C94.7358 31.6149 98.1754 38.0218 99.5537 44.8794C100.078 45.3788 100.578 45.9025 101.066 46.4263C99.4073 36.889 95.5164 28.0216 87.9053 21.566Z" fill="white"/>
<path d="M104.811 84.6484C109.873 73.9783 109.372 60.9209 102.408 51.1643C99.3464 46.8768 95.3701 43.1374 90.6742 40.6892C85.6001 38.0582 79.9772 37.0472 74.647 35.074C70.8781 42.3579 66.9018 50.0437 66.2797 58.3386C65.6943 66.2437 67.4873 73.9661 70.9513 81.0673C72.8906 82.5899 74.7324 84.2342 76.4522 85.9882C77.4402 85.6593 78.4404 85.3548 79.4527 85.0503C78.1232 82.529 77.3426 79.7275 76.318 77.0843C76.2571 76.9381 76.5132 76.8285 76.5742 76.9747C77.8427 79.5813 79.5381 81.9687 80.77 84.5875C80.7822 84.6118 80.7944 84.6484 80.7944 84.6727C81.3433 84.5266 81.8922 84.3682 82.4532 84.2342C79.8796 80.1903 78.6111 75.2938 77.9403 70.6043C77.9037 70.3607 78.2452 70.2511 78.3184 70.4947C79.8064 75.1476 81.9897 79.4108 83.9169 83.881C84.9293 83.6496 85.9538 83.4425 86.9662 83.2598C82.7094 74.5508 79.782 65.6347 78.3794 55.9756C78.3428 55.6833 78.7453 55.5493 78.8307 55.8538C81.4531 65.0622 84.6365 74.2706 88.6006 83.004C89.43 82.8822 90.2473 82.7969 91.0767 82.7239C87.4419 77.1696 85.5513 70.2876 84.3194 63.8685C84.2706 63.6249 84.6243 63.5153 84.6975 63.7589C86.7345 70.4216 89.9667 76.3291 92.8575 82.6021C93.26 82.5899 93.6625 82.5777 94.065 82.5777C93.1136 78.7652 92.4062 74.8918 91.6377 71.0428C91.5767 70.7627 91.9671 70.653 92.0646 70.921C93.3697 74.7944 94.748 78.68 95.8336 82.6264C96.3093 82.6508 96.785 82.6873 97.2485 82.736C96.6386 79.764 96.1263 76.7676 95.6384 73.7712C95.6018 73.5276 95.9434 73.418 96.0165 73.6616C96.9557 76.5727 97.8583 79.496 98.6755 82.4437C98.7243 82.6142 98.7121 82.7726 98.6511 82.8944C100.786 83.2111 102.835 83.7836 104.811 84.6484Z" fill="white"/>
<path d="M47.5936 22.7475C47.2887 22.4674 46.0324 21.1275 44.9712 20.7743C40.5802 31.9925 48.1791 41.5298 53.6678 50.7625C54.7778 52.6261 55.7414 54.5019 56.583 56.4264C56.6318 56.4143 56.6927 56.4021 56.7415 56.3899C55.8389 54.2096 54.9363 52.0415 54.0216 49.8612C53.924 49.6419 54.3021 49.4836 54.4119 49.7028C56.3512 53.4301 58.3882 57.1086 60.3885 60.8114C60.3397 60.6531 60.2787 60.5069 60.2299 60.3485C58.9126 56.5482 57.2294 52.9185 55.6682 49.2156C55.5462 48.9355 55.9975 48.7771 56.1439 49.0086C58.3272 52.5165 60.5349 56.2559 62.3888 60.1415C60.7178 56.2316 59.3395 52.1024 57.9003 48.2168C57.7905 47.9245 58.2174 47.7783 58.376 48.0098C60.0714 50.4702 61.7424 53.2595 63.1085 56.1707C62.7304 54.9891 62.4498 53.7833 62.0839 52.5774C61.5228 50.7016 60.7788 48.8867 60.0348 47.0719C59.925 46.8039 60.3641 46.6334 60.4861 46.877C61.5228 48.8624 62.4864 50.8843 63.5842 52.8454C64.0233 53.6249 64.4502 54.3923 64.8161 55.184C64.9259 54.5628 65.0478 53.9295 65.1942 53.3204C64.3404 51.0914 63.3646 48.9233 62.3035 46.7917C62.2181 46.6334 62.4254 46.4507 62.5596 46.5968C63.8891 47.9976 64.9259 49.5932 65.6943 51.3228C65.8407 50.7869 65.9992 50.251 66.1578 49.715C62.5596 43.2716 59.6811 36.7185 54.9973 30.8719C52.7164 28.0217 50.277 25.2689 47.5936 22.7475Z" fill="white"/>
<path d="M147.294 14.5622C142.195 18.2529 137.67 22.5526 133.925 27.5465C133.145 28.7159 132.425 29.9217 131.657 31.1032C133.608 32.4431 135.157 34.6843 135.975 36.5966C136.243 37.23 136.475 37.8634 136.694 38.5211C136.78 38.4237 136.865 38.314 136.938 38.2166C137.304 37.7416 137.658 37.2543 138.024 36.7793C138.109 36.6575 138.341 36.7184 138.28 36.8889C138.072 37.5101 137.853 38.1313 137.646 38.7525C137.499 39.191 137.402 39.6417 137.145 40.0193C137.206 40.2386 137.267 40.4456 137.316 40.6649C138.097 39.3737 139.085 38.2044 140.073 37.0716C140.17 36.962 140.329 37.096 140.268 37.2178C139.341 38.9596 138.67 40.8232 137.743 42.5528C137.877 43.2593 137.987 43.9658 138.072 44.6844C139.304 41.9316 141.28 39.4103 143.183 37.2422C143.354 37.0473 143.671 37.3031 143.537 37.5223C141.476 41.0668 140.317 45.0742 138.365 48.6309C138.39 49.4835 138.377 50.3361 138.341 51.1888C140.146 46.3166 142.744 41.8951 145.757 37.2787C145.842 37.1447 146.025 37.2543 145.964 37.4005C143.403 43.1497 141.171 48.9719 139.012 54.8551C141.512 49.9464 144.537 45.2325 147.489 40.8963C147.659 40.6405 148.025 40.8598 147.891 41.1277C145.806 45.6223 143.769 50.1047 141.829 54.648C141.232 56.0488 140.658 57.4617 140.097 58.8868C141.366 56.8405 142.707 54.8185 143.915 52.8209C146.208 49.0328 148.428 45.2082 150.684 41.4079C150.782 41.2374 151.075 41.347 151.014 41.5419C149.465 46.0852 147.586 50.6894 145.391 54.9647C145.037 55.6468 144.683 56.3411 144.33 57.0476C145.671 55.4641 147.025 53.8928 148.257 52.2363C150.343 49.4226 152.172 46.4628 154.124 43.5516C154.246 43.3689 154.563 43.4786 154.49 43.71C152.965 48.302 150.575 53.2716 147.513 57.4739C155.295 50.6285 158.43 39.4103 159.649 29.5198C160.357 23.7341 160.637 17.8753 161.503 12.1017C161.894 9.53167 162.284 6.48656 164.016 4.63513C163.723 4.79348 163.418 4.95182 163.126 5.11017C161.211 6.13333 159.296 7.16866 157.405 8.25272C153.941 10.2016 150.514 12.2235 147.294 14.5622Z" fill="white"/>
<path d="M58.5833 32.2483C58.5955 32.297 58.5833 32.3335 58.5833 32.3822C59.4615 33.5516 60.3153 34.7452 61.1447 35.9755C60.6202 33.3689 60.4373 30.7135 60.5104 28.0095C60.5226 27.7537 60.8764 27.7659 60.9129 28.0095C61.3399 32.0168 62.2912 35.8658 63.4744 39.6905C64.7917 41.9561 65.9382 44.2947 66.8164 46.6821C68.7436 39.2885 63.145 32.4553 61.8155 25.3419C60.8032 19.9704 60.8276 14.611 62.0595 9.36121C58.0832 16.2188 56.9001 24.4284 58.5833 32.2483Z" fill="white"/>
<path d="M170.383 60.8113C164.919 65.9271 159.491 70.9576 152.953 74.3803C156.417 74.1489 159.723 74.9406 162.504 77.3767C162.662 77.5107 162.735 77.73 162.747 77.937C162.796 77.9492 162.833 77.9857 162.845 78.0345C162.882 78.3024 163.016 78.5704 163.052 78.8506C163.065 78.9602 163.077 79.082 163.101 79.1916C165.846 77.4498 168.346 75.5984 170.542 73.1136C170.737 72.8943 171.103 73.1867 170.944 73.4181C168.87 76.4023 166.297 79.2647 163.211 81.2379C163.272 81.6764 163.321 82.1271 163.333 82.5778C164.504 81.311 166.199 80.3 167.492 79.2647C171.408 76.1343 174.603 72.4436 176.86 67.9612C176.982 67.7176 177.384 67.8882 177.299 68.1439C176.152 71.4448 174.567 74.7579 172.298 77.4498C171.029 78.9602 169.688 80.3975 168.102 81.6033C166.443 82.8701 163.638 83.8202 163.699 86.2441C165.004 85.696 166.394 85.1844 167.834 84.7337C171.847 81.5303 175.359 78.339 178.116 73.9297C180.848 69.5812 182.897 64.9283 185.032 60.2876C187.252 55.4519 189.606 50.7137 192.85 46.4628C192.899 46.4019 193.924 45.0986 194.485 44.0632C190.313 45.9025 186.203 47.7539 182.47 50.4458C178.14 53.5518 174.262 57.1694 170.383 60.8113Z" fill="white"/>
<path d="M186.91 60.5555C186.264 62.0171 185.593 63.564 184.885 65.1475C185.142 65.0866 185.398 65.0379 185.666 65.0135C185.886 64.9891 185.971 65.3302 185.776 65.4398C185.337 65.6591 184.91 65.927 184.532 66.2315C184.471 66.2803 184.41 66.3046 184.361 66.329C184.178 66.7188 184.007 67.1085 183.824 67.5105C184.434 67.2182 185.068 66.9502 185.69 66.6944C185.947 66.5848 186.166 66.9867 185.959 67.1573C184.983 67.9612 183.971 68.7407 182.91 69.4472C182.641 69.9953 182.373 70.5312 182.092 71.0794C184.288 69.5203 186.837 68.3266 189.081 67.3643C189.325 67.2669 189.508 67.5714 189.289 67.7176C187.215 69.1305 185.312 70.7139 183.544 72.4923C183.361 72.675 183.19 72.8577 183.007 73.0526C184.861 72.0416 186.678 70.9697 188.52 69.9344C189.337 69.0939 190.155 68.2657 190.984 67.4252C195.521 62.7723 200.644 57.2789 207.133 55.5493C199.705 53.71 192.704 55.6102 186.91 60.5555Z" fill="white"/>
<path d="M41.4828 30.9084C39.763 46.5237 45.0932 60.8723 55.656 72.1879C56.0585 72.3584 56.4488 72.529 56.8391 72.6995C53.4361 68.6799 51.0332 63.7225 49.2159 58.8625C49.1305 58.6554 49.472 58.5093 49.5818 58.7042C52.3384 63.893 55.9365 68.1805 59.6079 72.6995C59.6567 72.7482 59.7177 72.7726 59.7665 72.8091C58.6565 70.373 58.0954 67.5959 57.51 65.0989C56.1195 59.1914 53.7166 54.1365 50.4478 49.0329C46.752 43.2715 41.9585 35.8049 41.8244 28.5941C41.6902 29.3737 41.5682 30.141 41.4828 30.9084Z" fill="white"/>
<path d="M195.509 83.9542C195.985 84.1003 196.461 84.2465 196.924 84.417C204.035 76.7921 201.218 65.245 206.401 56.804C203.389 58.7406 200.461 60.7139 197.79 63.1743C194.912 65.8175 192.277 68.6799 189.533 71.457C185.154 75.8785 179.543 81.7251 173.091 82.8945C172.786 83.1381 172.469 83.3573 172.152 83.5887C178.348 82.2367 185.154 81.8957 191.411 83.0041C192.667 81.8226 193.777 80.5924 194.607 79.0698C194.729 78.8506 195.082 78.9967 195.009 79.2403C194.558 80.702 193.899 82.1027 192.984 83.3208C193.167 83.3573 193.35 83.406 193.533 83.4426C195.204 81.043 196.924 78.8627 198.156 76.1587C198.278 75.8907 198.693 76.0856 198.62 76.3536C197.949 78.8993 197.01 81.6764 195.509 83.9542Z" fill="white"/>
<path d="M167.078 3.80688C167.065 3.81907 167.053 3.81906 167.041 3.83124C163.126 5.45124 163.321 11.0908 162.955 14.5988C162.674 17.2663 162.455 19.946 162.199 22.6257C161.699 27.8998 161.198 33.247 159.893 38.3872C158.271 44.7697 155.698 50.3727 151.465 54.9647C152.526 54.307 153.612 53.6736 154.71 53.0646C157.881 48.8989 160.955 43.8562 162.272 38.8866C162.333 38.6673 162.662 38.7648 162.613 38.984C161.711 43.7222 160.454 47.6808 158.003 51.3106C158.783 50.9208 159.564 50.5311 160.345 50.1656C167.468 36.7184 171.151 21.2371 167.761 6.13335C167.687 5.78012 167.553 4.46463 167.078 3.80688Z" fill="white"/>
<path d="M115.898 102.724C118.423 104.831 121.484 106.281 124.692 107C130.742 108.339 137.121 107.791 142.915 105.611C144.732 104.929 146.55 104.113 148.294 103.151C148.379 103.065 148.489 103.004 148.623 102.968C152.051 101.019 155.173 98.4976 157.393 95.2698C160.808 90.3002 161.699 85.2575 161.394 79.5083C154.832 84.5023 146.391 84.4536 138.426 83.6131C133.511 83.0893 128.461 82.3585 123.521 82.9675C118.484 83.5887 114.386 85.5254 110.604 88.6923C110.544 88.802 110.483 88.9116 110.422 89.0212C110.3 89.2161 110.153 89.3379 109.995 89.3988C111.605 91.774 112.556 94.6242 112.471 97.3161C112.458 97.5353 112.434 97.7424 112.422 97.9495C113.459 99.5938 114.239 101.336 115.898 102.724ZM155.551 90.1053C154.197 95.0871 151.002 99.9349 146.159 102.152C145.684 102.371 145.123 101.774 145.562 101.384C149.392 97.9738 152.782 94.5877 155.039 89.8982C155.185 89.6059 155.637 89.8129 155.551 90.1053ZM149.831 92.8093C149.965 92.6144 150.245 92.7728 150.148 92.992C147.855 97.8642 144.757 101.835 139.951 104.356C139.683 104.49 139.402 104.149 139.622 103.93C143.171 100.422 146.903 96.8654 149.831 92.8093ZM143.354 96.4513C143.476 96.3173 143.659 96.4878 143.586 96.634C141.707 100.386 138.768 103.735 135.023 105.672C134.609 105.891 134.17 105.355 134.511 105.014C137.463 102.152 140.512 99.4355 143.354 96.4513ZM136.938 98.3027C137.085 98.0469 137.426 98.2662 137.316 98.522C136.121 101.189 134.243 104.198 131.352 105.233C130.803 105.428 130.327 104.624 130.779 104.247C131.901 103.321 133.206 102.615 134.267 101.616C135.328 100.654 136.231 99.5573 136.938 98.3027ZM128.449 103.406C129.559 102.59 130.718 101.859 131.828 101.043C132.047 100.885 132.328 101.25 132.12 101.421C131.071 102.31 130.096 103.272 129.047 104.174C128.51 104.637 127.876 103.82 128.449 103.406Z" fill="white"/>
<path d="M182.422 44.6235C172.188 46.9134 162.321 50.7868 153.368 56.268C145.635 61.0062 138.914 66.8528 132.486 73.1379C132.267 73.5399 132.035 73.9296 131.791 74.3194C135.755 71.0063 141.402 68.7286 145.928 67.3766C146.062 67.34 146.135 67.5227 146.025 67.5958C143.391 69.362 140.756 71.0307 138.207 72.9308C138.048 73.0405 137.902 73.1623 137.743 73.2841C138.182 73.0892 138.621 72.8943 139.048 72.6994C143.281 70.8114 147.44 68.7042 151.758 67.0233C152.051 66.9137 152.221 67.3644 151.965 67.5106C147.806 70.0197 143.488 72.2609 139.268 74.6605C142.951 73.3206 146.647 72.0417 150.294 70.7384C150.526 70.6531 150.66 71.0063 150.453 71.1281C147.257 72.9187 143.952 74.697 140.573 76.3414C141.122 76.183 141.683 76.0125 142.232 75.8541C145.83 74.7823 149.44 73.3937 153.136 72.6994C153.161 72.6994 153.173 72.6994 153.197 72.6994C160.137 68.2901 165.992 62.3339 172.066 56.8039C177.14 52.1754 183.08 46.7673 189.813 44.2824C190.74 43.6612 191.765 43.1984 192.85 42.9304C191.887 43.0279 190.923 43.1375 189.96 43.2715C187.447 43.6491 184.922 44.0632 182.422 44.6235Z" fill="white"/>
<path d="M152.368 80.2514C150.782 80.9822 149.123 81.5669 147.403 81.9932C152.173 81.8471 156.673 80.8726 160.515 77.9615C154.478 73.272 147.55 77.5961 140.878 80.5925C144.635 80.4707 148.33 80.2149 152.124 79.6668C152.441 79.618 152.721 80.0809 152.368 80.2514Z" fill="white"/>
<path d="M49.5695 97.5353C50.1306 97.1943 50.6916 96.8532 51.2649 96.5244C46.1299 95.4281 40.8363 91.9689 37.2137 88.6314C37.043 88.4853 37.2625 88.1929 37.4577 88.3147C40.1776 90.1175 43.0196 91.9567 46.1421 92.992C48.6913 93.8447 51.3625 94.2101 53.8995 95.0749C54.424 94.8069 54.9485 94.5389 55.473 94.271C51.948 93.4305 48.5083 91.7496 45.3859 90.0809C45.0443 89.8982 45.3493 89.411 45.6908 89.5693C49.8256 91.3964 53.9483 91.9202 58.3149 92.8337C58.3515 92.8459 58.3881 92.8581 58.4247 92.8702C62.3522 91.0919 66.3895 89.5572 70.3658 88.1077C71.8904 87.5474 73.476 86.9871 75.0983 86.439C70.6707 83.272 66.4504 79.8128 61.7057 77.1209C56.5097 74.1733 50.9722 72.0417 45.1541 70.6775C34.1522 68.0952 22.7722 67.3644 11.8557 64.4045C18.6496 80.5802 33.0789 92.1759 49.5695 97.5353Z" fill="white"/>
<path d="M12.0509 42.5894C16.6371 54.514 29.2002 56.6334 40.0679 61.0305C40.8485 61.2132 41.6292 61.4203 42.4098 61.6517C39.1043 60.0926 35.7745 58.5945 32.3837 57.1937C32.2373 57.1328 32.2861 56.9014 32.4568 56.9501C35.5305 57.9245 38.592 58.8015 41.6779 59.6298C39.58 58.6432 37.4943 57.5957 35.3476 56.7065C35.0792 56.5969 35.1646 56.1827 35.4696 56.2558C38.2505 56.877 41.1779 57.4373 43.91 58.3387C43.8612 58.2412 43.8125 58.1438 43.7637 58.0342C42.9343 57.6687 42.1658 57.1693 41.3242 56.8039C40.1411 56.2802 38.9336 55.7808 37.7382 55.2936C37.5187 55.2083 37.5919 54.8672 37.8358 54.9281C38.9702 55.2205 40.1045 55.4884 41.2388 55.732C41.7755 55.8539 42.3244 55.9148 42.8733 55.9878C42.7757 55.7442 42.6781 55.5006 42.5927 55.257C42.3 55.0987 42.0195 54.9281 41.7267 54.7454C41.1779 54.4044 40.6168 54.246 40.0069 54.0755C39.8362 54.0268 39.9093 53.7832 40.0801 53.8197C40.7632 53.9659 41.4584 54.0268 42.1536 54.0877C42.0561 53.8197 41.9585 53.5396 41.8731 53.2716C41.7389 53.1863 41.5926 53.1011 41.4584 53.0158C41.251 52.894 41.3852 52.553 41.617 52.626C41.6292 52.626 41.6414 52.6382 41.6536 52.6382C41.0681 50.8233 40.5802 48.9841 40.2021 47.1205C36.1892 44.185 30.859 44.185 26.1021 43.7709C21.4184 43.3689 16.7346 42.9426 12.0509 42.5894Z" fill="white"/>
<path d="M88.2103 116.245C96.2361 115.197 105.445 111.726 108.994 103.808C112.861 95.1846 108.47 86.4512 98.956 85.221C98.8829 85.2088 98.8097 85.1845 98.7487 85.1479C94.9676 84.5998 91.162 84.5389 87.2223 85.2332C81.2701 86.2807 75.5618 88.2052 69.9023 90.2881C60.2299 93.8569 51.021 97.9983 43.1172 104.624C50.0452 105.112 56.217 108.011 62.4986 110.983C70.6585 114.856 79.0868 117.438 88.2103 116.245ZM92.9794 107.682C94.1381 108.473 95.3335 109.204 96.5044 109.972C97.0655 110.337 96.4678 111.117 95.9433 110.69C94.8578 109.801 93.8088 108.888 92.7111 108.023C92.5159 107.877 92.7843 107.548 92.9794 107.682ZM85.9904 106.89C88.625 108.169 91.467 109.558 93.6625 111.543C94.1747 112.006 93.5161 112.785 92.9428 112.469C90.3692 111.044 88.0761 108.985 85.7709 107.17C85.6123 107.036 85.8318 106.817 85.9904 106.89ZM75.0739 104.941C79.4405 107.938 84.112 109.899 89.0885 111.64C90.0399 111.981 89.6496 113.48 88.6616 113.175C83.551 111.604 78.916 108.656 74.8422 105.233C74.6958 105.099 74.9031 104.819 75.0739 104.941ZM73.8664 113.285C68.3166 113.212 62.9255 108.632 59.1321 105.014C58.9126 104.795 59.2297 104.503 59.4615 104.685C61.7545 106.488 64.2916 108.059 66.9262 109.326C69.2436 110.434 71.9026 111.226 74.0371 112.651C74.3055 112.834 74.2201 113.285 73.8664 113.285ZM82.7215 114.344C75.8423 112.895 69.8169 108.9 64.877 103.991C64.7063 103.821 64.938 103.504 65.1332 103.662C70.6463 107.804 76.7083 110.471 83.0875 113.005C83.9169 113.333 83.6241 114.527 82.7215 114.344Z" fill="white"/>
<path d="M189.874 84.6971C180.629 83.1867 171.078 84.5022 162.589 88.4609C162.199 89.8495 161.686 91.2137 161.052 92.517C161.967 92.517 162.906 92.6631 163.784 92.7971C164.15 92.858 164.004 93.3452 163.699 93.3818C162.662 93.5158 161.577 93.6132 160.528 93.5158C160.43 93.6985 160.32 93.8812 160.223 94.0639C162.65 94.0517 165.126 94.344 167.529 94.5755C167.822 94.5998 167.822 95.014 167.529 95.0261C164.87 95.2088 162.125 95.4768 159.454 95.3185C159.198 95.7204 158.93 96.098 158.661 96.4756C163.76 96.3903 168.944 96.9872 173.92 98.0347C173.932 97.9982 173.981 97.9738 174.018 97.9982C174.054 98.0103 174.091 98.0347 174.115 98.0469C174.201 98.0834 174.128 98.2052 174.042 98.1687C174.042 98.2296 173.993 98.2905 173.92 98.2905C168.492 98.2052 163.016 98.1565 157.6 97.8642C157.308 98.2052 157.015 98.5463 156.71 98.8752C159.515 98.729 162.406 98.997 165.163 99.2649C168.297 99.5573 171.505 99.8009 174.518 100.787C174.811 100.885 174.762 101.323 174.445 101.336C170.968 101.445 167.468 100.909 164.004 100.714C161.113 100.544 158.174 100.653 155.295 100.312C155.075 100.52 154.844 100.727 154.612 100.921C156.185 100.982 157.783 101.323 159.32 101.543C161.747 101.896 164.211 102.091 166.614 102.566C166.797 102.602 166.748 102.883 166.565 102.883C164.101 102.98 161.613 102.785 159.149 102.749C157.051 102.724 154.905 102.87 152.868 102.322C152.599 102.517 152.331 102.712 152.063 102.907C155.454 103.077 158.905 103.735 162.113 104.734C165.736 105.197 169.285 105.794 172.542 106.123C178.409 106.719 184.324 106.866 190.155 105.842C194.229 105.124 198.144 103.967 202.059 102.724C204.535 101.311 207.158 100.264 210.085 99.947C208.146 90.8239 198.424 86.0979 189.874 84.6971Z" fill="white"/>
<path d="M174.579 117.316C182.483 115.648 189.069 112.456 195.375 107.462C195.863 107.073 196.351 106.695 196.839 106.317C189.777 108.425 182.08 108.875 174.908 108.242C169.114 107.73 163.382 106.719 157.576 106.317C153.27 106.025 149.209 106.378 145.013 106.744C144.208 107.073 143.391 107.365 142.561 107.633C144.415 108.766 146.123 110.118 148.013 111.177C148.221 111.299 148.038 111.592 147.83 111.494C145.33 110.398 142.695 109.704 140.353 108.279C139.768 108.437 139.17 108.583 138.573 108.717C146.391 112.688 153.856 116.293 163.016 115.55C163.187 115.538 163.211 115.794 163.052 115.843C153.636 118.766 143.452 114.6 135.609 109.411C135.536 109.363 135.487 109.314 135.426 109.265C134.523 109.387 133.608 109.472 132.706 109.533C143.708 120.167 160.284 120.337 174.579 117.316Z" fill="white"/>
<path d="M105.726 128.863C110.897 130.959 116.179 132.688 121.582 134.04C123.619 130.764 126.693 128.535 129.864 126.391C133.865 123.687 136.938 121.031 138.878 116.683C135.719 115.002 132.925 112.7 130.705 109.594C130.693 109.582 130.693 109.582 130.693 109.57C128.217 109.557 125.753 109.241 123.387 108.559C123.448 108.729 123.497 108.9 123.558 109.058C123.692 109.472 123.082 109.606 122.924 109.229C122.789 108.912 122.655 108.607 122.533 108.291C122.143 108.157 121.753 108.023 121.362 107.864C120.96 107.706 120.509 107.511 120.033 107.292C120.179 107.998 120.277 108.705 120.521 109.387C120.582 109.545 120.338 109.643 120.252 109.497C119.74 108.607 119.057 107.682 118.777 106.683C117.984 106.281 117.167 105.806 116.362 105.282C117.142 107.414 117.642 109.679 118.008 111.896C118.069 112.237 117.593 112.383 117.484 112.042C116.63 109.18 115.422 106.5 114.288 103.747C113.849 103.37 113.434 102.98 113.056 102.566C113.837 106.33 114.471 110.13 115.069 113.93C115.105 114.174 114.776 114.271 114.703 114.028C113.507 110.386 112.349 106.744 111.324 103.053C111.275 103.199 111.214 103.345 111.153 103.492C111.178 103.553 111.202 103.626 111.214 103.711C111.714 106.732 111.239 110.167 110.958 113.212C110.946 113.321 110.775 113.37 110.751 113.236C110.324 111.153 109.763 108.839 109.543 106.598C109.324 106.939 109.092 107.28 108.848 107.609C108.824 109.509 108.604 111.397 108.653 113.309C108.653 113.467 108.409 113.504 108.372 113.346C108.067 111.969 107.75 110.568 107.604 109.143C107.299 109.484 106.994 109.813 106.677 110.13C106.25 111.214 106.03 112.335 105.982 113.516C105.97 113.748 105.591 113.833 105.555 113.577C105.421 112.785 105.421 112.006 105.518 111.226C103.481 112.98 101.127 114.442 98.5658 115.55C96.8216 116.305 94.9798 116.902 93.1014 117.365C94.8456 123.882 99.6148 126.379 105.726 128.863Z" fill="white"/>
<path d="M40.6778 104.429C41.6169 103.516 42.5805 102.627 43.5807 101.798C43.8124 101.506 44.0564 101.214 44.215 100.885C44.6785 99.9226 44.9346 98.8995 45.1785 97.8642C42.7757 97.0481 40.4582 96.0615 38.2261 94.9165C37.4821 97.2308 36.9454 99.6669 37.9334 102.018C38.592 103.552 39.5068 104.137 40.6778 104.429Z" fill="white"/>
<path d="M3.29333 105.745C4.01297 105.964 4.70821 106.232 5.40345 106.525C12.3071 107.84 19.3327 108.766 26.3583 109.156C27.6512 108.9 28.9563 108.656 30.2492 108.425C26.4071 108.132 22.6015 107.584 19.0399 106.975C18.8448 106.939 18.9058 106.646 19.0887 106.646C23.3578 106.488 27.6268 106.354 31.8958 106.318C33.7864 106.305 35.6891 106.196 37.6041 106.135C33.4936 105.587 29.3832 105.087 25.2483 105.002C25.0898 105.002 25.0532 104.746 25.2117 104.722C29.249 104.125 33.2253 103.869 37.1894 104.296C36.9698 104.015 36.7503 103.723 36.5673 103.382C35.1525 103.26 33.7498 103.041 32.3349 102.98C31.0298 102.919 29.7247 102.956 28.444 102.663C28.2854 102.627 28.2976 102.395 28.444 102.347C30.6883 101.665 33.4936 101.677 35.9209 101.75C35.8111 101.324 35.7257 100.885 35.6769 100.434C35.0793 100.325 34.4694 100.227 33.8596 100.118C33.5912 100.069 33.6888 99.7036 33.9205 99.667C34.4816 99.6061 35.0549 99.5452 35.6282 99.4721C35.6404 97.6451 36.1892 95.7936 37.2626 94.4051C36.4942 93.9909 35.7379 93.5768 34.9939 93.1261C22.9065 90.9945 10.4287 95.7571 3.29333 105.745Z" fill="white"/>
<path d="M33.1521 122.128C39.6654 123.808 46.5569 124.223 53.18 122.822C59.2542 121.543 64.2428 118.924 69.5608 116.013C68.8046 115.733 68.0484 115.428 67.3043 115.112C61.2301 119.838 53.18 121.177 45.6543 120.824C45.3737 120.812 45.3737 120.41 45.6543 120.386C52.7775 119.874 58.8273 117.207 65.0966 114.137C64.5356 113.881 63.9867 113.626 63.4256 113.358C63.3646 113.431 63.3036 113.492 63.2183 113.553C59.6933 116.025 54.9364 117.048 50.7161 117.475C50.582 117.487 50.5698 117.292 50.6917 117.255C54.5339 116.025 57.8881 114.125 61.4741 112.42C59.3396 111.384 57.2172 110.349 55.0461 109.423C46.9838 111.811 37.3724 111.506 29.0661 111.08C22.1746 110.727 15.4296 109.764 8.75769 108.205C11.3435 109.716 13.7464 111.543 16.1614 113.37C21.3086 117.268 26.834 120.508 33.1521 122.128Z" fill="white"/>
<path d="M13.5756 63.1135C15.6247 63.5886 17.6982 63.9905 19.7717 64.3559C20.8939 64.3559 21.9429 64.1367 23.0528 63.8565C22.2112 63.2841 21.4184 62.6628 20.6378 61.9929C18.9179 62.2609 17.1737 62.3218 15.4539 62.6628C14.8319 62.7968 14.2098 62.9674 13.5756 63.1135Z" fill="white"/>
<path d="M26.8096 60.5921C31.3957 62.8333 35.8721 65.0745 40.8486 66.3535C44.5077 67.3036 48.3498 68.2414 51.7529 69.9954C51.0576 69.2524 50.399 68.4972 49.7647 67.7177C42.3244 63.5763 34.0791 61.6275 26.3705 58.0586C20.7597 55.4642 15.6003 51.8344 12.8438 46.4385C13.9903 50.2144 15.8077 53.7589 18.3813 56.804C21.8209 60.8723 25.8704 63.4911 30.4077 66.0368C32.3471 66.3291 34.2865 66.6336 36.2258 66.9625C32.7252 65.4156 29.5905 63.2718 26.5534 60.9332C26.3339 60.7748 26.6022 60.4947 26.8096 60.5921Z" fill="white"/>
<path d="M74.0371 112.651C71.9026 111.226 69.2436 110.434 66.9261 109.326C64.2915 108.059 61.7667 106.488 59.4614 104.685C59.2297 104.503 58.9004 104.807 59.1321 105.014C62.9254 108.632 68.3166 113.212 73.8663 113.285C74.2201 113.285 74.3054 112.834 74.0371 112.651Z" fill="#000"/>
<path d="M83.0996 113.004C76.7205 110.471 70.6585 107.803 65.1453 103.662C64.9502 103.516 64.7184 103.833 64.8892 103.991C69.8291 108.887 75.8545 112.883 82.7337 114.344C83.6241 114.527 83.9169 113.333 83.0996 113.004Z" fill="#000"/>
<path d="M88.6738 113.175C89.6618 113.48 90.0521 111.981 89.1007 111.64C84.1242 109.899 79.4527 107.937 75.0861 104.941C74.9153 104.819 74.708 105.099 74.8665 105.233C78.916 108.656 83.551 111.604 88.6738 113.175Z" fill="#000"/>
<path d="M92.955 112.469C93.5283 112.785 94.1747 112.006 93.6747 111.543C91.4792 109.57 88.6494 108.181 86.0026 106.89C85.8318 106.805 85.6245 107.036 85.783 107.17C88.0883 108.985 90.3814 111.043 92.955 112.469Z" fill="#000"/>
<path d="M95.9555 110.69C96.48 111.117 97.0655 110.325 96.5166 109.972C95.3457 109.204 94.1503 108.486 92.9916 107.682C92.7842 107.535 92.5281 107.877 92.7232 108.023C93.821 108.888 94.87 109.801 95.9555 110.69Z" fill="#000"/>
<path d="M145.562 101.385C145.123 101.774 145.684 102.371 146.159 102.152C151.002 99.9472 154.197 95.0872 155.551 90.1054C155.637 89.8131 155.185 89.606 155.051 89.8983C152.782 94.5756 149.392 97.974 145.562 101.385Z" fill="#000"/>
<path d="M139.634 103.93C139.414 104.149 139.695 104.49 139.963 104.356C144.769 101.835 147.867 97.8642 150.16 92.9921C150.258 92.7728 149.977 92.6145 149.843 92.8094C146.903 96.8654 143.171 100.422 139.634 103.93Z" fill="#000"/>
<path d="M135.023 105.672C138.78 103.735 141.72 100.386 143.586 96.6341C143.659 96.4879 143.476 96.3295 143.354 96.4514C140.512 99.4356 137.463 102.152 134.511 105.014C134.157 105.355 134.609 105.879 135.023 105.672Z" fill="#000"/>
<path d="M131.352 105.246C134.243 104.198 136.121 101.202 137.316 98.5342C137.426 98.2784 137.072 98.0592 136.938 98.3149C136.231 99.5695 135.328 100.666 134.279 101.64C133.206 102.639 131.913 103.345 130.791 104.271C130.327 104.624 130.815 105.44 131.352 105.246Z" fill="#000"/>
<path d="M129.047 104.174C130.096 103.272 131.071 102.31 132.12 101.421C132.328 101.25 132.047 100.885 131.828 101.043C130.73 101.859 129.559 102.59 128.449 103.406C127.876 103.82 128.51 104.636 129.047 104.174Z" fill="#000"/>
</svg>
