<svg width="16" height="9" viewBox="0 0 16 9" fill="none" xmlns="http://www.w3.org/2000/svg">
<path d="M7.99997 1.00021C8.23362 0.999757 8.46006 1.08113 8.63997 1.23021L14.64 6.23021C14.8442 6.39995 14.9726 6.64386 14.997 6.90829C15.0214 7.17272 14.9397 7.436 14.77 7.64021C14.6002 7.84443 14.3563 7.97285 14.0919 7.99723C13.8275 8.02161 13.5642 7.93995 13.36 7.77021L7.99997 3.29021L2.63997 7.61021C2.53768 7.69328 2.41998 7.75531 2.29364 7.79274C2.16731 7.83017 2.03481 7.84227 1.90379 7.82833C1.77276 7.81439 1.64578 7.77469 1.53014 7.71152C1.4145 7.64835 1.31249 7.56294 1.22997 7.46021C1.13839 7.35739 1.06903 7.23677 1.02624 7.10589C0.983444 6.97502 0.968141 6.83672 0.981284 6.69965C0.994427 6.56259 1.03573 6.42972 1.10262 6.30936C1.1695 6.18901 1.26052 6.08376 1.36997 6.00021L7.36997 1.17021C7.55505 1.0447 7.77687 0.984842 7.99997 1.00021Z" fill="#FFF5F5"/>
</svg>
