<svg width="19" height="24" viewBox="0 0 19 24" fill="none" xmlns="http://www.w3.org/2000/svg">
<path d="M1.45834 23.5337C1.64707 23.6318 1.85896 23.6768 2.07129 23.6636C2.28361 23.6504 2.48834 23.5797 2.66351 23.459L17.8302 12.959C17.9852 12.8516 18.1118 12.7083 18.1993 12.5413C18.2867 12.3743 18.3324 12.1885 18.3324 12C18.3324 11.8115 18.2867 11.6257 18.1993 11.4587C18.1118 11.2917 17.9852 11.1484 17.8302 11.041L2.66351 0.541013C2.48848 0.419905 2.28365 0.348986 2.07121 0.335936C1.85876 0.322885 1.6468 0.368201 1.45826 0.466976C1.26972 0.565751 1.1118 0.714221 1.00159 0.89631C0.891377 1.0784 0.83308 1.28717 0.833008 1.50001V22.5C0.832973 22.713 0.891228 22.9219 1.00146 23.1041C1.11169 23.2863 1.26969 23.4349 1.45834 23.5337Z" fill="#5865F2"/>
</svg>
