<svg width="19" height="24" viewBox="0 0 19 24" fill="none" xmlns="http://www.w3.org/2000/svg">
<path d="M17.5417 0.466322C17.3529 0.368156 17.141 0.323242 16.9287 0.336397C16.7164 0.34955 16.5117 0.420276 16.3365 0.540987L1.16983 11.041C1.01485 11.1484 0.8882 11.2917 0.800727 11.4587C0.713254 11.6257 0.667562 11.8114 0.667562 12C0.667562 12.1885 0.713254 12.3743 0.800727 12.5413C0.8882 12.7083 1.01485 12.8516 1.16983 12.959L16.3365 23.459C16.5115 23.5801 16.7163 23.651 16.9288 23.6641C17.1412 23.6771 17.3532 23.6318 17.5417 23.533C17.7303 23.4342 17.8882 23.2858 17.9984 23.1037C18.1086 22.9216 18.1669 22.7128 18.167 22.5L18.167 1.49999C18.167 1.28703 18.1088 1.07812 17.9985 0.895908C17.8883 0.713697 17.7303 0.565134 17.5417 0.466322Z" fill="#686868"/>
</svg>
