<svg width="68" height="20" viewBox="0 0 68 20" fill="none" xmlns="http://www.w3.org/2000/svg">
<path fill-rule="evenodd" clip-rule="evenodd" d="M10.2478 2.45799C9.05731 2.45799 8.38035 2.43698 7.65677 2.33195V5.33612C8.3104 5.29411 8.77727 5.27311 10.2246 5.27311H12.5121V6.84882H9.64084C8.40364 6.84882 7.39987 6.8068 6.72292 6.74376V9.78989C7.46991 9.72687 8.49705 9.68486 9.57082 9.68486H19.305C20.3555 9.68486 21.2426 9.72687 22.0362 9.78989V6.74368C21.2892 6.80672 20.4489 6.84874 19.2351 6.84874H16.0602V5.27311H18.6981C20.1921 5.27311 20.5189 5.2731 21.2659 5.33612V2.33195C20.5189 2.41597 19.842 2.45799 18.6515 2.45799H16.0602C16.0602 1.09244 16.0837 0.903382 16.177 0.357152H12.3954C12.4887 0.945395 12.5121 1.17643 12.5121 2.45799H10.2478ZM9.94436 11.6597C8.82389 11.6597 8.05354 11.6387 7.30657 11.5547V14.6008C8.00686 14.5378 8.66048 14.5168 9.94436 14.5168H12.4888V16.3655H9.61751C8.33361 16.3655 7.11974 16.3236 6.46614 16.2604V19.4537C7.32984 19.3696 8.52037 19.3276 9.59415 19.3276H19.3283C20.3788 19.3276 21.4759 19.3696 22.293 19.4537V16.2604C21.4994 16.3236 20.5655 16.3655 19.3283 16.3655H16.0369V14.5168H18.8149C20.122 14.5168 20.8223 14.5378 21.4994 14.6218V11.5546C20.799 11.6176 20.0054 11.6596 18.8848 11.6596H16.0369C16.0602 10.8193 16.0837 10.6092 16.1304 10.126H12.3954C12.4421 10.6302 12.4654 10.7772 12.4887 11.6596H9.9443L9.94436 11.6597ZM2.35769 17.5839C2.35769 18.5713 2.33433 19.0546 2.21763 20H6.0226C5.90588 19.0126 5.88255 18.5084 5.88255 17.5839V5.33612C6.65288 3.9706 7.09641 2.92017 7.82006 0.777323L4.10849 0C3.99177 0.777302 3.75833 1.59664 3.26813 2.79411C2.42772 4.83193 1.37727 6.42857 0 7.77302C0.583589 9.15956 0.863696 10.0419 1.16718 11.6386C1.56401 11.2394 1.75077 11.0503 2.40437 10.252C2.38104 11.3024 2.35769 11.9747 2.35769 12.2898V17.5839ZM24.5579 8.76049C25.0947 8.5294 25.7016 8.31931 26.5654 8.08822C30.2535 7.05882 33.0781 6.59664 35.5526 6.59664C37.1867 6.59664 38.2605 6.91176 39.0075 7.60503C39.5911 8.13024 39.8712 8.80251 39.8712 9.64285C39.8712 10.4412 39.6377 11.1134 39.1242 11.7437C38.2605 12.8361 36.9532 13.6134 35.1091 14.0966C33.335 14.5797 31.3275 14.8109 28.4561 14.8319C29.3667 16.3445 29.5534 16.7436 30.1137 18.6344C34.222 18.2982 36.5096 17.815 38.8674 16.8066C42.3222 15.315 44.3297 12.647 44.3297 9.55876C44.3297 7.39491 43.2792 5.50416 41.4585 4.3487C40.0579 3.46634 38.1204 3.02518 35.6694 3.02518C33.3116 3.02518 31.5142 3.25628 26.7521 4.13861C25.1882 4.45375 24.6045 4.53778 23.6709 4.6218L24.5579 8.76049ZM53.5036 3.17227V4.76891C54.2741 4.68488 55.1845 4.64285 56.3984 4.64285H58.2891V15.7354H55.4178C54.1105 15.7354 53.1535 15.6932 52.4065 15.6092V19.0127C53.247 18.9285 54.0872 18.8865 55.4178 18.8865H64.9887C66.3193 18.8865 67.1596 18.9285 68 19.0127V15.6092C67.3229 15.6932 66.296 15.7353 64.9887 15.7353H62.024V4.64283H64.6386C65.8292 4.64283 66.7395 4.68486 67.5331 4.76889V1.38657C66.6927 1.4706 65.9224 1.51261 64.6386 1.51261H56.445C55.1144 1.51261 54.3208 1.4706 53.5036 1.38657V2.89917C51.8229 1.70169 50.8659 1.13447 49.0452 0.189099L46.8275 2.54199C48.9284 3.71844 49.8388 4.32769 51.4027 5.58818L53.5036 3.17227ZM49.7922 11.1554C48.5315 14.1806 47.3177 16.3445 46.1504 17.563L49.2785 19.979C49.4419 19.7058 49.4419 19.7058 49.6288 19.4328C49.9087 19.0126 49.9789 18.9285 50.1189 18.6555C51.1694 16.8698 51.6829 15.7983 52.7802 13.0042L49.7922 11.1554ZM46.0805 7.98327C48.0413 8.92865 48.9983 9.51689 50.7958 10.8824L52.8035 8.21434C50.9827 6.95375 50.2122 6.49165 48.2047 5.42013L46.0805 7.98327Z" fill="#00000D"/>
</svg>
