<svg width="19" height="19" viewBox="0 0 19 19" fill="none" xmlns="http://www.w3.org/2000/svg">
<path fill-rule="evenodd" clip-rule="evenodd" d="M1.22532 1.22489C1.49724 0.953062 1.86598 0.800354 2.25047 0.800354C2.63496 0.800354 3.00371 0.953062 3.27562 1.22489L9.50047 7.44974L15.7253 1.22489C15.8591 1.0864 16.0191 0.975941 16.196 0.899948C16.3729 0.823954 16.5632 0.783954 16.7557 0.782281C16.9482 0.780608 17.1392 0.817295 17.3174 0.890203C17.4956 0.96311 17.6574 1.07078 17.7936 1.20692C17.9297 1.34307 18.0374 1.50496 18.1103 1.68316C18.1832 1.86136 18.2199 2.0523 18.2182 2.24483C18.2166 2.43736 18.1766 2.62762 18.1006 2.80453C18.0246 2.98144 17.9141 3.14144 17.7756 3.27519L11.5508 9.50004L17.7756 15.7249C18.0397 15.9984 18.1859 16.3646 18.1826 16.7448C18.1793 17.125 18.0268 17.4887 17.758 17.7575C17.4891 18.0264 17.1254 18.1789 16.7453 18.1822C16.3651 18.1855 15.9988 18.0393 15.7253 17.7752L9.50047 11.5503L3.27562 17.7752C3.00215 18.0393 2.63587 18.1855 2.25569 18.1822C1.8755 18.1789 1.51183 18.0264 1.24298 17.7575C0.974143 17.4887 0.821648 17.125 0.818344 16.7448C0.81504 16.3646 0.961193 15.9984 1.22532 15.7249L7.45017 9.50004L1.22532 3.27519C0.953489 3.00328 0.800781 2.63453 0.800781 2.25004C0.800781 1.86556 0.953489 1.49681 1.22532 1.22489Z" fill="white"/>
</svg>
