<svg width="32" height="33" viewBox="0 0 32 33" fill="none" xmlns="http://www.w3.org/2000/svg">
<path d="M25.3988 2.10158C22.3643 5.1382 19.3245 8.17536 16.2931 11.2125C13.2565 8.17695 10.2199 5.13979 7.1822 2.10158C3.66852 -1.41052 -1.77574 4.03639 1.73636 7.54848C4.77192 10.5824 7.81014 13.6212 10.842 16.6541C7.80801 19.6897 4.77033 22.7279 1.73636 25.765C-1.77574 29.2761 3.67117 34.7214 7.1822 31.2114C10.2178 28.1743 13.2544 25.1376 16.2931 22.1005C19.3298 25.1376 22.3643 28.1732 25.3988 31.2114C28.9114 34.7219 34.3562 29.2761 30.8467 25.7656C27.8096 22.7284 24.773 19.6929 21.7358 16.6546C24.7735 13.618 27.8101 10.5809 30.8467 7.5437C34.3562 4.03267 28.9114 -1.41424 25.3988 2.09786" fill="#5865F2"/>
</svg>
