<svg width="22" height="18" viewBox="0 0 22 18" fill="none" xmlns="http://www.w3.org/2000/svg">
<path d="M21.6034 2.56763C20.843 2.9046 20.0261 3.13228 19.1673 3.23519C20.0534 2.70496 20.7163 1.87045 21.0324 0.887366C20.1999 1.38187 19.2887 1.72995 18.3385 1.91647C17.6995 1.23423 16.8532 0.78202 15.9309 0.630066C15.0086 0.478111 14.0619 0.634908 13.2378 1.07611C12.4137 1.51732 11.7584 2.21825 11.3735 3.07008C10.9886 3.92191 10.8957 4.87698 11.1093 5.78701C9.42233 5.70231 7.77207 5.26385 6.26556 4.50008C4.75905 3.73632 3.42997 2.66432 2.36458 1.35365C2.0003 1.98204 1.79083 2.71062 1.79083 3.48654C1.79043 4.18506 1.96244 4.87287 2.29162 5.48896C2.62079 6.10505 3.09694 6.63036 3.67783 7.01829C3.00416 6.99686 2.34534 6.81483 1.75623 6.48735V6.54199C1.75616 7.52168 2.09504 8.47123 2.71537 9.2295C3.33571 9.98778 4.19928 10.5081 5.15957 10.7021C4.53462 10.8713 3.87941 10.8962 3.24342 10.775C3.51436 11.618 4.04211 12.3551 4.75281 12.8832C5.46351 13.4113 6.32156 13.704 7.20685 13.7202C5.70402 14.9 3.84803 15.5399 1.93746 15.5371C1.59902 15.5372 1.26087 15.5174 0.924744 15.4779C2.86409 16.7248 5.12163 17.3866 7.42724 17.384C15.2321 17.384 19.4988 10.9198 19.4988 5.31344C19.4988 5.13129 19.4942 4.94733 19.486 4.76519C20.3159 4.165 21.0323 3.42179 21.6016 2.57037L21.6034 2.56763Z" fill="black"/>
</svg>
