<svg width="18" height="18" viewBox="0 0 18 18" fill="none" xmlns="http://www.w3.org/2000/svg">
<path d="M8.99771 6.16546C7.43694 6.16546 6.16323 7.4392 6.16323 9C6.16323 10.5608 7.43694 11.8345 8.99771 11.8345C10.5585 11.8345 11.8322 10.5608 11.8322 9C11.8322 7.4392 10.5585 6.16546 8.99771 6.16546ZM17.4991 9C17.4991 7.82621 17.5097 6.66305 17.4438 5.49138C17.3778 4.13046 17.0674 2.92264 16.0722 1.92747C15.075 0.930173 13.8693 0.621839 12.5084 0.55592C11.3346 0.49 10.1715 0.500632 8.99984 0.500632C7.82607 0.500632 6.66293 0.49 5.49129 0.55592C4.13039 0.621839 2.9226 0.932299 1.92745 1.92747C0.930165 2.92477 0.621837 4.13046 0.555919 5.49138C0.49 6.66517 0.500632 7.82833 0.500632 9C0.500632 10.1717 0.49 11.337 0.555919 12.5086C0.621837 13.8695 0.932291 15.0774 1.92745 16.0725C2.92473 17.0698 4.13039 17.3782 5.49129 17.4441C6.66506 17.51 7.8282 17.4994 8.99984 17.4994C10.1736 17.4994 11.3368 17.51 12.5084 17.4441C13.8693 17.3782 15.0771 17.0677 16.0722 16.0725C17.0695 15.0752 17.3778 13.8695 17.4438 12.5086C17.5118 11.337 17.4991 10.1738 17.4991 9ZM8.99771 13.3613C6.58425 13.3613 4.63648 11.4135 4.63648 9C4.63648 6.58649 6.58425 4.63868 8.99771 4.63868C11.4112 4.63868 13.359 6.58649 13.359 9C13.359 11.4135 11.4112 13.3613 8.99771 13.3613ZM13.5376 5.47862C12.9741 5.47862 12.519 5.02356 12.519 4.46006C12.519 3.89655 12.9741 3.44149 13.5376 3.44149C14.1011 3.44149 14.5561 3.89655 14.5561 4.46006C14.5563 4.59386 14.5301 4.72639 14.4789 4.85004C14.4278 4.9737 14.3528 5.08605 14.2582 5.18067C14.1636 5.27528 14.0512 5.3503 13.9276 5.40143C13.8039 5.45256 13.6714 5.47879 13.5376 5.47862Z" fill="black"/>
</svg>
