<svg width="34" height="22" viewBox="0 0 34 22" fill="none" xmlns="http://www.w3.org/2000/svg">
<path fill-rule="evenodd" clip-rule="evenodd" d="M-2.85305e-06 11C-2.88138e-06 11.3241 0.127919 11.6349 0.35563 11.8641C0.583337 12.0933 0.892178 12.222 1.2142 12.222L29.8525 12.2221L22.2103 19.9112C22.0974 20.0248 22.0079 20.1597 21.9468 20.3082C21.8857 20.4566 21.8542 20.6157 21.8542 20.7764C21.8542 20.9371 21.8857 21.0962 21.9468 21.2447C22.0079 21.3931 22.0974 21.528 22.2103 21.6416C22.3232 21.7552 22.4572 21.8454 22.6047 21.9069C22.7522 21.9683 22.9103 22 23.07 22C23.2296 22 23.3877 21.9683 23.5352 21.9069C23.6827 21.8454 23.8167 21.7552 23.9296 21.6416L33.6433 11.8652C33.7564 11.7517 33.8461 11.6168 33.9073 11.4684C33.9685 11.3199 34 11.1607 34 11C34 10.8393 33.9685 10.6801 33.9073 10.5316C33.8461 10.3832 33.7564 10.2483 33.6433 10.1348L23.9296 0.358386C23.8167 0.244763 23.6827 0.154635 23.5352 0.0931445C23.3877 0.0316515 23.2296 2.87312e-06 23.07 2.85916e-06C22.9103 2.84521e-06 22.7522 0.0316515 22.6047 0.0931444C22.4572 0.154635 22.3232 0.244763 22.2103 0.358386C22.0974 0.472007 22.0079 0.606894 21.9468 0.755347C21.8857 0.9038 21.8542 1.06291 21.8542 1.2236C21.8542 1.38428 21.8857 1.54339 21.9468 1.69185C22.0079 1.8403 22.0974 1.97519 22.2103 2.08881L29.8525 9.77795L1.2142 9.77795C0.892179 9.77795 0.583337 9.9067 0.35563 10.1359C0.127919 10.3651 -2.82471e-06 10.6759 -2.85305e-06 11Z" fill="white"/>
</svg>
